<svg width="24" height="24" viewBox="0 0 24 24" fill="none" xmlns="http://www.w3.org/2000/svg">
<circle cx="12" cy="12" r="12" fill="#292D32"/>
<path d="M10.5234 12.5635L8.69141 12.1328L9.29297 7.04688H15.1104V8.83789H11.1729L10.9473 10.8135C11.0566 10.7497 11.2412 10.6745 11.501 10.5879C11.7653 10.4967 12.057 10.4512 12.376 10.4512C12.8682 10.4512 13.3034 10.5264 13.6816 10.6768C14.0645 10.8226 14.388 11.0391 14.6523 11.3262C14.9167 11.6087 15.1149 11.9574 15.2471 12.3721C15.3838 12.7868 15.4521 13.2607 15.4521 13.7939C15.4521 14.2223 15.3815 14.637 15.2402 15.0381C15.1035 15.4346 14.8916 15.7923 14.6045 16.1113C14.3219 16.4258 13.9642 16.6764 13.5312 16.8633C13.0983 17.0456 12.5856 17.1367 11.9932 17.1367C11.5511 17.1367 11.1204 17.0684 10.7012 16.9316C10.2819 16.7949 9.90365 16.599 9.56641 16.3438C9.23372 16.084 8.9694 15.7718 8.77344 15.4072C8.58203 15.0381 8.48861 14.6257 8.49316 14.1699H10.8105C10.8242 14.4115 10.8812 14.6211 10.9814 14.7988C11.0817 14.9766 11.2161 15.1156 11.3848 15.2158C11.5579 15.3115 11.7562 15.3594 11.9795 15.3594C12.2074 15.3594 12.3965 15.3138 12.5469 15.2227C12.6973 15.1315 12.8158 15.0062 12.9023 14.8467C12.9889 14.6872 13.0505 14.5049 13.0869 14.2998C13.1234 14.0902 13.1416 13.8691 13.1416 13.6367C13.1416 13.3906 13.1143 13.1696 13.0596 12.9736C13.0094 12.7777 12.9274 12.6113 12.8135 12.4746C12.6995 12.3333 12.5514 12.2262 12.3691 12.1533C12.1914 12.0804 11.9772 12.0439 11.7266 12.0439C11.3939 12.0439 11.1318 12.1009 10.9404 12.2148C10.749 12.3288 10.61 12.445 10.5234 12.5635Z" fill="white"/>
</svg>
