<svg width="24" height="24" viewBox="0 0 24 24" fill="none" xmlns="http://www.w3.org/2000/svg">
<circle cx="12" cy="12" r="12" fill="#292D32"/>
<path d="M10.6533 11.0596H11.7744C12.0615 11.0596 12.2962 11.0094 12.4785 10.9092C12.6654 10.8044 12.8044 10.6585 12.8955 10.4717C12.9867 10.2803 13.0322 10.0547 13.0322 9.79492C13.0322 9.5944 12.9889 9.40983 12.9023 9.24121C12.8203 9.07259 12.6927 8.93815 12.5195 8.83789C12.3464 8.73307 12.1253 8.68066 11.8564 8.68066C11.6742 8.68066 11.4964 8.7194 11.3232 8.79688C11.1501 8.86979 11.0065 8.97461 10.8926 9.11133C10.7832 9.24805 10.7285 9.41439 10.7285 9.61035H8.41797C8.41797 9.04525 8.57292 8.56217 8.88281 8.16113C9.19727 7.75553 9.6097 7.44564 10.1201 7.23145C10.6351 7.0127 11.1888 6.90332 11.7812 6.90332C12.4876 6.90332 13.1074 7.0127 13.6406 7.23145C14.1738 7.44564 14.5885 7.76465 14.8848 8.18848C15.1855 8.60775 15.3359 9.12728 15.3359 9.74707C15.3359 10.0889 15.2562 10.4102 15.0967 10.7109C14.9372 11.0117 14.7139 11.276 14.4268 11.5039C14.1396 11.7318 13.8024 11.9118 13.415 12.0439C13.0322 12.1715 12.613 12.2354 12.1572 12.2354H10.6533V11.0596ZM10.6533 12.7754V11.627H12.1572C12.654 11.627 13.1074 11.6839 13.5176 11.7979C13.9277 11.9072 14.2809 12.0713 14.5771 12.29C14.8734 12.5088 15.1012 12.7799 15.2607 13.1035C15.4202 13.4225 15.5 13.7894 15.5 14.2041C15.5 14.6689 15.4066 15.0837 15.2197 15.4482C15.0329 15.8128 14.7708 16.1204 14.4336 16.3711C14.0964 16.6217 13.7021 16.8132 13.251 16.9453C12.7998 17.0729 12.3099 17.1367 11.7812 17.1367C11.3665 17.1367 10.9518 17.082 10.5371 16.9727C10.1224 16.8587 9.74414 16.6855 9.40234 16.4531C9.06055 16.2161 8.78483 15.9154 8.5752 15.5508C8.37012 15.1816 8.26758 14.7419 8.26758 14.2314H10.5781C10.5781 14.4411 10.6351 14.6325 10.749 14.8057C10.8675 14.9743 11.0247 15.1087 11.2207 15.209C11.4167 15.3092 11.6286 15.3594 11.8564 15.3594C12.139 15.3594 12.3783 15.307 12.5742 15.2021C12.7747 15.0928 12.9274 14.9469 13.0322 14.7646C13.137 14.5824 13.1895 14.3796 13.1895 14.1562C13.1895 13.819 13.1325 13.5501 13.0186 13.3496C12.9092 13.1491 12.7474 13.0033 12.5332 12.9121C12.3236 12.821 12.0706 12.7754 11.7744 12.7754H10.6533Z" fill="white"/>
</svg>
