<svg width="24" height="24" viewBox="0 0 24 24" fill="none" xmlns="http://www.w3.org/2000/svg">
<circle cx="12" cy="12" r="12" fill="#292D32"/>
<path d="M15.5 15.2227V17H8.55469V15.4961L11.7539 12.1328C12.0365 11.8092 12.2643 11.5199 12.4375 11.2646C12.6107 11.0049 12.736 10.7702 12.8135 10.5605C12.8955 10.3509 12.9365 10.1618 12.9365 9.99316C12.9365 9.70605 12.8932 9.4668 12.8066 9.27539C12.7246 9.07943 12.6016 8.93132 12.4375 8.83105C12.278 8.73079 12.0798 8.68066 11.8428 8.68066C11.6058 8.68066 11.3984 8.74902 11.2207 8.88574C11.043 9.02246 10.904 9.20931 10.8037 9.44629C10.708 9.68327 10.6602 9.94987 10.6602 10.2461H8.34961C8.34961 9.63542 8.49772 9.07715 8.79395 8.57129C9.09473 8.06543 9.51172 7.66211 10.0449 7.36133C10.5781 7.05599 11.1956 6.90332 11.8975 6.90332C12.6312 6.90332 13.2464 7.01725 13.7432 7.24512C14.2399 7.47298 14.6136 7.80339 14.8643 8.23633C15.1195 8.66471 15.2471 9.18197 15.2471 9.78809C15.2471 10.1344 15.1924 10.4671 15.083 10.7861C14.9736 11.1051 14.8164 11.4219 14.6113 11.7363C14.4062 12.0462 14.1556 12.3652 13.8594 12.6934C13.5677 13.0215 13.235 13.3701 12.8613 13.7393L11.5762 15.2227H15.5Z" fill="white"/>
</svg>
