<?xml version="1.0" encoding="utf-8"?>
<!-- Generator: Adobe Illustrator 26.0.2, SVG Export Plug-In . SVG Version: 6.00 Build 0)  -->
<svg version="1.1" id="Capa_1" xmlns="http://www.w3.org/2000/svg" xmlns:xlink="http://www.w3.org/1999/xlink" x="0px" y="0px"
	 viewBox="0 0 32 22" style="enable-background:new 0 0 32 22;" xml:space="preserve">
<style type="text/css">
	.st0{fill:#1F72CD;stroke:#D9D9D9;}
	.st1{fill-rule:evenodd;clip-rule:evenodd;fill:#FFFFFF;}
</style>
<g>
	<path class="st0" d="M2,0.5h28c0.8,0,1.5,0.7,1.5,1.5v18c0,0.8-0.7,1.5-1.5,1.5H2c-0.8,0-1.5-0.7-1.5-1.5V2C0.5,1.2,1.2,0.5,2,0.5z
		"/>
</g>
<path class="st1" d="M6.2,7.8L3.4,14h3.4l0.4-1h1l0.4,1h3.7v-0.8l0.3,0.8h1.9l0.3-0.8V14h7.7l0.9-1l0.9,1l4,0l-2.8-3.1l2.8-3.1h-3.9
	l-0.9,0.9l-0.9-0.9h-8.4l-0.7,1.6l-0.7-1.6H9.5v0.7L9.1,7.8H6.2z M17.8,8.7h4.4l1.4,1.5L25,8.7h1.4l-2.1,2.2l2.1,2.2h-1.4l-1.4-1.5
	l-1.4,1.5h-4.4V8.7z M18.9,10.4V9.6v0h2.8l1.2,1.3l-1.3,1.3h-2.7v-0.9h2.4v-0.9H18.9z M6.8,8.7h1.6l1.9,4.2V8.7h1.8l1.4,3l1.3-3h1.8
	v4.5h-1.1l0-3.5l-1.6,3.5h-1l-1.6-3.5v3.5H9.2l-0.4-1H6.5l-0.4,1H4.9L6.8,8.7z M6.9,11.2l0.8-1.8l0.8,1.8H6.9z"/>
</svg>
