<?xml version="1.0" encoding="utf-8"?>
<!-- Generator: Adobe Illustrator 26.0.2, SVG Export Plug-In . SVG Version: 6.00 Build 0)  -->
<svg version="1.1" id="Capa_1" xmlns="http://www.w3.org/2000/svg" xmlns:xlink="http://www.w3.org/1999/xlink" x="0px" y="0px"
	 viewBox="0 0 32 22" style="enable-background:new 0 0 32 22;" xml:space="preserve">
<style type="text/css">
	.st0{fill:#FFFFFF;stroke:#D9D9D9;}
	.st1{fill-rule:evenodd;clip-rule:evenodd;fill:#ED0006;}
	.st2{fill-rule:evenodd;clip-rule:evenodd;fill:#F9A000;}
	.st3{fill-rule:evenodd;clip-rule:evenodd;fill:#FF5E00;}
</style>
<g>
	<path class="st0" d="M2,0.5h28c0.8,0,1.4,0.7,1.4,1.5v18c0,0.8-0.6,1.5-1.4,1.5H2c-0.8,0-1.4-0.7-1.4-1.5V2C0.5,1.2,1.2,0.5,2,0.5z
		"/>
</g>
<g>
	<path class="st1" d="M16,16.1c-1.2,1-2.7,1.6-4.3,1.6C8,17.7,5,14.7,5,11c0-3.7,3-6.7,6.7-6.7c1.7,0,3.2,0.6,4.3,1.6
		c1.2-1,2.7-1.6,4.3-1.6c3.7,0,6.7,3,6.7,6.7c0,3.7-3,6.7-6.7,6.7C18.7,17.7,17.2,17.1,16,16.1z"/>
	<path class="st2" d="M16,16.1c1.4-1.2,2.3-3.1,2.3-5.1c0-2-0.9-3.9-2.3-5.1c1.2-1,2.7-1.6,4.3-1.6c3.7,0,6.7,3,6.7,6.7
		c0,3.7-3,6.7-6.7,6.7C18.7,17.7,17.2,17.1,16,16.1z"/>
	<path class="st3" d="M16,16.1c1.4-1.2,2.3-3.1,2.3-5.1c0-2-0.9-3.9-2.3-5.1C14.6,7.1,13.7,9,13.7,11C13.7,13.1,14.6,14.9,16,16.1z"
		/>
</g>
</svg>
