<?xml version="1.0" encoding="utf-8"?>
<!-- Generator: Adobe Illustrator 26.0.2, SVG Export Plug-In . SVG Version: 6.00 Build 0)  -->
<svg version="1.1" id="Capa_1" xmlns="http://www.w3.org/2000/svg" xmlns:xlink="http://www.w3.org/1999/xlink" x="0px" y="0px"
	 viewBox="0 0 32 22" style="enable-background:new 0 0 32 22;" xml:space="preserve">
<style type="text/css">
	.st0{fill:#FFFFFF;stroke:#D9D9D9;}
	.st1{fill-rule:evenodd;clip-rule:evenodd;fill:#6461FC;}
</style>
<g>
	<path class="st0" d="M2,0.5h28.1c0.8,0,1.5,0.7,1.5,1.5v18c0,0.8-0.7,1.5-1.5,1.5H2c-0.8,0-1.5-0.7-1.5-1.5V2
		C0.6,1.2,1.2,0.5,2,0.5z"/>
</g>
<path class="st1" d="M17,7.2l-1.7,0.4V6.2L17,5.9V7.2z M10,6.6L8.3,7l0,5.5c0,1,0.8,1.8,1.8,1.8c0.6,0,1-0.1,1.2-0.2v-1.4
	c-0.2,0.1-1.3,0.4-1.3-0.6V9.6h1.3V8.1H10L10,6.6z M28.5,11.2C28.5,9.4,27.6,8,26,8c-1.6,0-2.6,1.4-2.6,3.1c0,2.1,1.2,3.1,2.9,3.1
	c0.8,0,1.4-0.2,1.9-0.4v-1.4c-0.5,0.2-1,0.4-1.7,0.4c-0.7,0-1.3-0.2-1.3-1h3.4c0,0,0-0.1,0-0.2v0l0,0l0,0
	C28.5,11.4,28.5,11.3,28.5,11.2z M25,10.5c0-0.8,0.5-1.1,0.9-1.1c0.4,0,0.9,0.3,0.9,1.1H25z M5.9,9.5c-0.4,0-0.6,0.1-0.6,0.4
	c0,0.3,0.4,0.4,0.9,0.6c0.8,0.3,1.8,0.6,1.8,1.9c0,1.2-1,1.9-2.4,1.9c-0.6,0-1.2-0.1-1.9-0.4v-1.6c0.6,0.3,1.3,0.6,1.9,0.6
	c0.4,0,0.7-0.1,0.7-0.4c0-0.3-0.4-0.5-0.9-0.7c-0.8-0.3-1.7-0.6-1.7-1.8C3.5,8.8,4.5,8,5.9,8C6.4,8,7,8.1,7.6,8.3V10
	C7.1,9.7,6.4,9.5,5.9,9.5z M13.4,8.7l-0.1-0.5h-1.5v6h1.7v-4.1c0.4-0.5,1.1-0.4,1.3-0.4V8.1C14.6,8.1,13.8,7.9,13.4,8.7z M15.3,8.1
	H17v6h-1.7V8.1z M19.3,8.6C19.5,8.3,20,8,20.6,8c1.2,0,2.4,1.1,2.4,3.1c0,2.2-1.1,3.2-2.4,3.2c-0.6,0-1-0.3-1.2-0.4l0,1.9l-1.7,0.4
	v-8h1.5L19.3,8.6z M19.4,12.4c0.2,0.2,0.4,0.3,0.8,0.3c0.6,0,1.1-0.7,1.1-1.6c0-0.9-0.4-1.6-1.1-1.6c-0.4,0-0.6,0.1-0.8,0.3
	L19.4,12.4z"/>
</svg>
