<?xml version="1.0" encoding="utf-8"?>
<!-- Generator: Adobe Illustrator 26.0.2, SVG Export Plug-In . SVG Version: 6.00 Build 0)  -->
<svg version="1.1" id="Capa_1" xmlns="http://www.w3.org/2000/svg" xmlns:xlink="http://www.w3.org/1999/xlink" x="0px" y="0px"
	 viewBox="0 0 32 22" style="enable-background:new 0 0 32 22;" xml:space="preserve">
<style type="text/css">
	.st0{fill:#FFFFFF;stroke:#D9D9D9;}
	.st1{fill-rule:evenodd;clip-rule:evenodd;fill:#172B85;}
</style>
<g>
	<path class="st0" d="M2,0.5h28c0.8,0,1.5,0.7,1.5,1.5v18c0,0.8-0.7,1.5-1.5,1.5H2c-0.8,0-1.5-0.7-1.5-1.5V2C0.5,1.2,1.2,0.5,2,0.5z
		"/>
	<path class="st1" d="M9.7,14.9H7.8L6.3,9.3C6.2,9.1,6.1,8.9,5.9,8.8C5.3,8.5,4.8,8.3,4.1,8.2V8h3.1C7.7,8,8,8.3,8,8.7l0.8,4L10.7,8
		h1.9L9.7,14.9z M13.7,14.9h-1.8l1.5-7h1.8L13.7,14.9z M17.6,9.9c0.1-0.4,0.4-0.6,0.8-0.6c0.6-0.1,1.2,0.1,1.8,0.3l0.3-1.5
		c-0.5-0.2-1.1-0.3-1.7-0.3c-1.8,0-3.1,1-3.1,2.3c0,1,0.9,1.6,1.6,1.9c0.7,0.3,1,0.5,0.9,0.9c0,0.5-0.5,0.7-1.1,0.7
		c-0.6,0-1.3-0.2-1.9-0.4l-0.3,1.5c0.6,0.3,1.3,0.4,2,0.4c2,0.1,3.2-0.9,3.2-2.4C20.1,10.8,17.6,10.7,17.6,9.9L17.6,9.9z M26.5,14.9
		l-1.5-7h-1.6c-0.3,0-0.6,0.2-0.8,0.5L20,14.9h1.9l0.4-1h2.3l0.2,1H26.5z M23.8,9.8l0.5,2.6h-1.5L23.8,9.8z"/>
</g>
</svg>
