<svg xmlns="http://www.w3.org/2000/svg" viewBox="0 0 173.59 111.66"><defs><style>.cls-1,.cls-4{fill:#fff;}.cls-2{fill:#10547c;}.cls-3{fill:#ffc800;}.cls-4{stroke:#fff;stroke-miterlimit:10;stroke-width:2px;}.cls-5{fill:#fc4c3a;}</style></defs><g id="Capa_2" data-name="Capa 2"><g id="Capa_1-2" data-name="Capa 1"><path class="cls-1" d="M125.59,55.83A55.83,55.83,0,1,1,69.76,0,55.83,55.83,0,0,1,125.59,55.83Z"/><path class="cls-2" d="M29.25,87.66h81a51.46,51.46,0,0,0,5.35-8.34H23.9A51.46,51.46,0,0,0,29.25,87.66Z"/><path class="cls-2" d="M29.78,88.33h80l.53-.67h-81C29.42,87.88,29.59,88.11,29.78,88.33Z"/><path class="cls-2" d="M22.54,76.47H117a51.41,51.41,0,0,0,4.29-19.75h-103A51.41,51.41,0,0,0,22.54,76.47Z"/><path class="cls-2" d="M69.76,107.36a51.24,51.24,0,0,0,23-5.44H46.72A51.18,51.18,0,0,0,69.76,107.36Z"/><path class="cls-2" d="M32.28,91.18h75l.64-.68H31.64C31.84,90.73,32.06,91,32.28,91.18Z"/><path class="cls-2" d="M41.75,99.08h56a52.07,52.07,0,0,0,9.48-7.9h-75A51.67,51.67,0,0,0,41.75,99.08Z"/><path class="cls-2" d="M30.78,22.15h78a52.3,52.3,0,0,0-10.19-9.06H41A51.73,51.73,0,0,0,30.78,22.15Z"/><path class="cls-2" d="M69.76,4.3a51.36,51.36,0,0,0-24,5.94h48A51.35,51.35,0,0,0,69.76,4.3Z"/><path class="cls-2" d="M18.28,53.87h103a51.54,51.54,0,0,0-.92-8H19.2A51.54,51.54,0,0,0,18.28,53.87Z"/><path class="cls-2" d="M19.84,43h99.84a50.39,50.39,0,0,0-2.92-8.3h-94A51.3,51.3,0,0,0,19.84,43Z"/><path class="cls-2" d="M24.14,31.88h91.24A51.18,51.18,0,0,0,111,25H28.47A52.13,52.13,0,0,0,24.14,31.88Z"/><path class="cls-1" d="M149.18,55.83A55.83,55.83,0,1,1,93.35,0,55.82,55.82,0,0,1,149.18,55.83Z"/><path class="cls-3" d="M65.34,99.08h56a51.67,51.67,0,0,0,9.47-7.9h-75A51.67,51.67,0,0,0,65.34,99.08Z"/><path class="cls-3" d="M93.35,107.36a51.24,51.24,0,0,0,23-5.44H70.31A51.21,51.21,0,0,0,93.35,107.36Z"/><path class="cls-3" d="M93.35,4.3a51.39,51.39,0,0,0-24,5.94h48A51.42,51.42,0,0,0,93.35,4.3Z"/><path class="cls-3" d="M54.37,22.15h78a51.73,51.73,0,0,0-10.19-9.06H64.56A51.73,51.73,0,0,0,54.37,22.15Z"/><path class="cls-3" d="M53.37,88.33h80A51.85,51.85,0,0,0,139,79.8H47.73A51.85,51.85,0,0,0,53.37,88.33Z"/><path class="cls-3" d="M134.64,25H52.06A53.84,53.84,0,0,0,48,31.42h90.78A53.84,53.84,0,0,0,134.64,25Z"/><polygon class="cls-4" points="62.54 35.22 84.36 35.22 60.33 77.9 47.37 77.9 54.01 64.62 47.37 64.62 60.96 51.95 24.92 77.9 3.11 77.9 62.54 35.22"/><polygon class="cls-4" points="87.2 35.22 127.35 35.22 121.03 47.23 107.28 47.23 90.68 77.9 76.45 77.9 94.16 47.23 80.25 47.23 87.2 35.22"/><polygon class="cls-4" points="130.19 35.22 106.48 77.9 121.03 77.9 130.19 61.46 141.58 61.46 133.04 77.9 147.9 77.9 171.93 32.69 157.38 32.69 147.58 51.95 134.62 51.95 143.79 35.22 130.19 35.22"/><polygon class="cls-5" points="62.54 35.22 84.36 35.22 60.33 77.9 47.37 77.9 54.01 64.62 47.37 64.62 60.96 51.95 24.92 77.9 3.11 77.9 62.54 35.22"/><polygon class="cls-5" points="87.2 35.22 127.35 35.22 121.03 47.23 107.28 47.23 90.68 77.9 76.45 77.9 94.16 47.23 80.25 47.23 87.2 35.22"/><polygon class="cls-5" points="130.19 35.22 106.48 77.9 121.03 77.9 130.19 61.46 141.58 61.46 133.04 77.9 147.9 77.9 171.93 32.69 157.38 32.69 147.58 51.95 134.62 51.95 143.79 35.22 130.19 35.22"/></g></g></svg>