<svg xmlns="http://www.w3.org/2000/svg" viewBox="0 0 276.04 90.03"><defs><style>.cls-1{fill:#fcb618;}.cls-2{fill:#fff;}</style></defs><g id="Capa_2" data-name="Capa 2"><g id="Capa_1-2" data-name="Capa 1"><path class="cls-1" d="M90.84,45C86.15,69.88,62.2,90,37.34,90S-3.88,69.88.8,45,29.44,0,54.3,0,95.53,20.15,90.84,45m-24-38.33C79.9,12.21,87.32,26,84.29,42.08A42.6,42.6,0,0,1,81.11,52c0,.08-.09.16-.13.24a47.75,47.75,0,0,1-5.75,9.35l-.24.3-.36.44a49.62,49.62,0,0,1-20.85,15h0l-.61.22-.54.19-.25.09h0a.22.22,0,0,1-.2-.22v-.21h0l.19-4a22,22,0,0,0,10.55-5.29,15.91,15.91,0,0,0,4.9-13.33,14.26,14.26,0,0,0-5.08-10.41A48,48,0,0,0,52,37.68l-.58-.28a54.58,54.58,0,0,1-8.2-4.62,6.51,6.51,0,0,1-2.94-4.18,3.26,3.26,0,0,1,.87-2.45,7.3,7.3,0,0,1,5.24-1.7h0a29.41,29.41,0,0,1,10.45,2.7,1.72,1.72,0,0,0,.84.14,5.72,5.72,0,0,0,4.34-3.19A10.33,10.33,0,0,0,63.34,20a1.67,1.67,0,0,0-.65-1.46A23,23,0,0,0,52,14.45a.68.68,0,0,1-.34-.21.52.52,0,0,1-.12-.17s.3-4.91.44-6.57a6.44,6.44,0,0,0-.12-2,1.71,1.71,0,0,0-1.69-1.19H50A46.68,46.68,0,0,0,33.87,8.73h0C19.53,15.55,8,29.22,5.07,45c-3.33,17.72,5.1,32.8,19.8,38.46C11.77,77.9,4.34,64.14,7.37,48a43.07,43.07,0,0,1,3.28-10.12,1.14,1.14,0,0,0,.1-.19,48,48,0,0,1,2.33-4.36A50,50,0,0,1,35.25,13.85v0A46.48,46.48,0,0,1,40.15,12l.22-.07h0a.21.21,0,0,1,.19.21v.21L40.32,15a19.52,19.52,0,0,0-9.45,4.61,16.51,16.51,0,0,0-1.11,22.8,30.31,30.31,0,0,0,10.33,7.5l.28.13a74.76,74.76,0,0,1,9.48,4.83c2.26,1.59,2.79,2.79,2.93,4.28v0a3.67,3.67,0,0,1-1.16,3,7.88,7.88,0,0,1-5.31,1.75h-.05A25.21,25.21,0,0,1,33,60.11l-.08,0,0,0a4.47,4.47,0,0,0-2.26-.72h-.08a3.09,3.09,0,0,0-2,.84A5.1,5.1,0,0,0,27.32,62a9.42,9.42,0,0,0-1,5.14,9.65,9.65,0,0,0,.15,1.06,1.71,1.71,0,0,0,.71,1.07,27.86,27.86,0,0,0,13.24,5.06.52.52,0,0,1,.3.16.46.46,0,0,1,.16.23,49,49,0,0,1-.23,7.37,6.59,6.59,0,0,0,.2,2.42,1.66,1.66,0,0,0,.37.66,1.71,1.71,0,0,0,1.16.56h.13a1.84,1.84,0,0,0,.33,0c.8-.09,1.61-.21,2.41-.34h0A46.93,46.93,0,0,0,54,83l.15-.06,1.4-.56.21-.09,1.41-.62.13-.06c14.57-6.74,26.29-20.53,29.29-36.47,3.34-17.71-5.1-32.8-19.8-38.46"/><path class="cls-2" d="M106.05,49.39c.15,5.81,4,9.91,10.13,9.91a17.12,17.12,0,0,0,8.55-2.3L127,62.1a21.6,21.6,0,0,1-11.56,3.16c-11.85,0-17-8.4-17-17.81,0-10.27,5.68-17.74,14.87-17.74s14.58,6.9,14.58,17.88v1.8Zm14.22-5.32c-.14-4.31-2.23-8.54-7-8.54-4.52,0-7.18,3.94-7.25,8.54Z"/><path class="cls-2" d="M135,36.46h-3.69l-2.39-5.89H135v-5.1c0-8.12,4.74-11.78,10.91-11.78a16.47,16.47,0,0,1,6.53,1.36l-1.5,6a12.26,12.26,0,0,0-4.1-.86c-3,0-4.38,1.87-4.38,5.17v5.25h9.36l-2.46,5.89h-6.9V64.54H135Z"/><path class="cls-2" d="M159.56,49.39c.13,5.81,3.94,9.91,10.12,9.91a17,17,0,0,0,8.55-2.3l2.22,5.1a21.6,21.6,0,0,1-11.56,3.16C157,65.26,152,56.86,152,47.45c0-10.27,5.67-17.74,14.86-17.74s14.58,6.9,14.58,17.88v1.8Zm14.22-5.32c-.14-4.31-2.23-8.54-7.05-8.54-4.51,0-7.17,3.94-7.25,8.54Z"/><path class="cls-2" d="M185.36,47.81c0-10.34,7.4-18.1,17.6-18.1a17.6,17.6,0,0,1,9,2.23v6.39a14.29,14.29,0,0,0-8.26-2.52c-6.6,0-10.63,5-10.63,11.78,0,7.4,4,11.56,10.2,11.56a15.79,15.79,0,0,0,8-2.3L213.44,62a20.47,20.47,0,0,1-11.2,3.23c-10.84,0-16.87-7.68-16.87-17.44"/><path class="cls-2" d="M268.28,30.57l-8.4,25.14h-.15s-6.34-15.12-8.46-20.16c-.53-1.25-2.23-5-8-5H228.5V20.46L221,22.75v7.83h-6v5.89h6v20c0,5.53,3.38,8.76,9.06,8.76a17.75,17.75,0,0,0,9.48-2.65l-2.37-5.17a9.57,9.57,0,0,1-5.32,1.72c-2.22,0-3.37-1.22-3.37-4.31V36.46h15.28l12.58,28c-2.66,8.19-5.88,10.92-9.91,10.92a11.21,11.21,0,0,1-4.95-1.22l-1.87,6a16.88,16.88,0,0,0,7.11,1.44c6,0,11.42-1.8,16.37-15.44L276,30.57Z"/></g></g></svg>