<svg xmlns="http://www.w3.org/2000/svg" viewBox="0 0 127.05 128.36"><defs><style>.cls-1{fill:none;}.cls-2{fill:#ffe701;}.cls-3{fill-rule:evenodd;}.cls-4{fill:#ec1b23;}</style></defs><g id="Capa_2" data-name="Capa 2"><g id="Capa_1-2" data-name="Capa 1"><rect id="rect3912" class="cls-1" x="126.04" y="56.87" width="1.01" height="10.11"/><rect id="rect3908" class="cls-1" x="71.4" y="127.58" width="10.11" height="0.79"/><path id="path3122" class="cls-2" d="M126.65,63.32A63.33,63.33,0,1,1,63.32,0,63.33,63.33,0,0,1,126.65,63.32Z"/><path id="path3060" d="M119.94,50a3.22,3.22,0,1,0,3.22,3.21A3.21,3.21,0,0,0,119.94,50Zm0,.64a2.57,2.57,0,1,1-2.56,2.57A2.57,2.57,0,0,1,120,50.63Z"/><path id="path2995" class="cls-3" d="M22.52,50.1l-.22,0h-.63a8.3,8.3,0,0,0-1.47.19h0a9.17,9.17,0,0,0-3,1,8.91,8.91,0,0,0-2,1.21h0a12.84,12.84,0,0,0-4.68,6.88s0,0,0,0a14.64,14.64,0,0,0-.63,4.29A13.54,13.54,0,0,0,14.08,73.9a9.86,9.86,0,0,0,1.22,1,8.61,8.61,0,0,0,1.68.93l.05,0a13.21,13.21,0,0,0,5.49,1.05c.37,0,.72,0,1.06,0h0a6,6,0,0,0,1,0l.32-.05A10.88,10.88,0,0,0,35,67.87h0a2.33,2.33,0,0,0,.07-.25H28.17a4.9,4.9,0,0,1-3.93,3.12h-.08a7.28,7.28,0,0,1-1.26.11,5.36,5.36,0,0,1-1.63-.21,4.45,4.45,0,0,1-3.12-3l0-.07c0-.06,0-.11,0-.17A3,3,0,0,1,18,67.1a9.69,9.69,0,0,1-.14-1.35v0H35.41c0-.38.05-.77.05-1.18s0-.76-.05-1.12v0A11.75,11.75,0,0,0,35.12,61a12.49,12.49,0,0,0-2.22-5.91l0,0a11.83,11.83,0,0,0-9.71-5h-.25a2.6,2.6,0,0,0-.4,0Zm.32,6.2a4.21,4.21,0,0,1,1.49.21,4.44,4.44,0,0,1,3,4H17.87a4.58,4.58,0,0,1,3.75-4.07h.07a5.4,5.4,0,0,1,1.15-.11Z"/><path id="rect3149" d="M33.22,50.7l4.27,6.13v0l4.09,6.06-4.91,7.28h0L35,72.65l-2.49,3.7h9l4.76-7.12,4.63,6.93.08.12h9.12L55.7,70v0l-4.92-7.31L55,56.76v.07l1.84-2.68,2.37-3.45h-9L46.3,56.45,42.41,50.7Zm9.07,0L41.9,51v0l.4-.27Z"/><path id="rect3212" d="M60.64,50.7l1.45,25.57h7.48L71,50.7H60.64Z"/><path id="path3244" class="cls-4" d="M70.65,82.35a4.84,4.84,0,0,1-9.67,0h0a4.84,4.84,0,0,1,9.67,0Z"/><path id="rect3246" d="M76.59,43.4v7.27H72.52v5.72h4.07V70.6h0a3.66,3.66,0,0,0,0,.59,2.55,2.55,0,0,0,.12.76h0a5.27,5.27,0,0,0,3.22,3.86c.09,0,.17.09.26.12l.22.09.1,0a7.24,7.24,0,0,0,1.84.38h0a18.09,18.09,0,0,0,2.17.13c.59,0,1.15,0,1.68-.08.38,0,.79,0,1.21,0a13,13,0,0,0,2-.3V74.65l0,0v-5H89.1a.94.94,0,0,1-.23.1v0a7.45,7.45,0,0,1-3.68.07h0a.64.64,0,0,1-.62-.65.76.76,0,0,1,0-.15V56.39H89.4V50.67H84.56V43.4Z"/><path id="path3011" d="M103.57,50a13.79,13.79,0,0,0-9.31,3.42l-.27.26a7.83,7.83,0,0,0-.68.73l0,0-.08.12a2.23,2.23,0,0,0-.19.24l-.06.08c-.07.1-.15.2-.22.31l-.08.12c-.09.14-.19.28-.28.43a16.12,16.12,0,0,0,0,15.66l.28.43.3.43c.1.13.19.26.29.38l0,0,0,0a9,9,0,0,0,1,1l0,0a14.38,14.38,0,0,0,18.55,0l0,0a8.2,8.2,0,0,0,1-1s0,0,0,0l0,0s0,0,0,0l.3-.38.3-.43.27-.43a16.12,16.12,0,0,0,0-15.66l-.27-.43a8,8,0,0,0-.55-.75l-.07-.09,0,0a9.46,9.46,0,0,0-.68-.73l-.13-.12s-.1-.09-.15-.14a13.76,13.76,0,0,0-9.3-3.42Zm0,6.33a5.08,5.08,0,0,1,4,2,1.74,1.74,0,0,1,.19.26A4.28,4.28,0,0,1,108,59c0,.08.07.17.11.25l.06.13c.06.14.11.27.16.41s.09.26.12.38v0a12.11,12.11,0,0,1,.43,3.3,11.87,11.87,0,0,1-.48,3.45s0,.06,0,.09l0,.06a3.52,3.52,0,0,1-.15.42s0,0,0,0l0,.06a4.42,4.42,0,0,1-.68,1.15l0,0-.06.05a5,5,0,0,1-8-.21,2.5,2.5,0,0,1-.18-.24h0c-.07-.11-.14-.22-.21-.35l0-.06,0,0a5.46,5.46,0,0,1-.49-1.37s0,0,0-.07a12.93,12.93,0,0,1,0-6.06v0a5.34,5.34,0,0,1,.72-1.78c.06-.1.13-.19.2-.29a5.08,5.08,0,0,1,4.1-2.11Z"/><path id="rect3066" d="M24,43.4,19.9,48.58H25l6.77-5.18Z"/><path id="rect3090" d="M119.12,51.47h-.48V54.9h.78V53.41h.44l.72,1.49h.86l-.74-1.52a.85.85,0,0,0,.17-.08.87.87,0,0,0,.3-.36h0a1,1,0,0,0,.12-.64.78.78,0,0,0-.35-.64l-.1-.07h0l0,0a.9.9,0,0,0-.25-.08h-1.4Zm.3.72h.9a.33.33,0,0,1,.19.34.34.34,0,0,1-.18.34h-.91v-.68Z"/></g></g></svg>