<svg xmlns="http://www.w3.org/2000/svg" viewBox="0 0 253.86 99.77"><defs><style>.cls-1{fill:#0a78bc;}.cls-2{fill:#fcb618;}</style></defs><g id="Capa_2" data-name="Capa 2"><g id="Capa_1-2" data-name="Capa 1"><path class="cls-1" d="M193.22,74.1h-28a1.59,1.59,0,0,1,0-3.18h27.82a11,11,0,0,0,8.73-10.7c.33-8.55-4.57-9.41-5.37-9.49h-18c-7.2-1.2-8.7-7.67-8.5-11.12,0-8.94,7.52-12.95,11.52-13.82a2,2,0,0,1,.34,0H207a1.59,1.59,0,1,1,0,3.18H182c-1.22.31-8.94,2.59-8.87,10.71v.12c0,.28-.35,6.68,5.71,7.78h17.71c.09,0,8.86.67,8.4,12.79a14.14,14.14,0,0,1-11.49,13.73A1.24,1.24,0,0,1,193.22,74.1Z"/><path class="cls-1" d="M245.93,74.26H220c-3.4-.36-9.88-2.73-10-9.09-.16-6.75,4.37-27.28,4.56-28.15l.06-.21c.16-.42,4-10.39,12.36-10.39h18.57a1.72,1.72,0,0,1,.44.06c.32.09,7.94,2.37,7.94,8.92,0,5.51-1.62,14.83-1.69,15.22a1.57,1.57,0,0,1-1.55,1.31l-35.92.31c-.9,5.1-1.66,10.22-1.6,12.86.12,4.92,6.31,5.89,7.12,6h25.71a1.59,1.59,0,1,1,0,3.17ZM217.57,37.82c-.18.81-1.24,5.69-2.28,11.22l34-.28a104.63,104.63,0,0,0,1.42-13.37c0-3.71-4.46-5.46-5.46-5.8H226.91C221.05,29.59,217.93,36.91,217.57,37.82Z"/><path class="cls-1" d="M116.82,95.11a1.43,1.43,0,0,1-.29,0,1.59,1.59,0,0,1-1.28-1.84s2.53-14,5.08-28c1.28-7,2.55-14,3.52-19.24.49-2.63.89-4.82,1.18-6.35a24.74,24.74,0,0,1,.58-2.65h0c1.8-4.9,7.39-10.16,11.5-10.81a1.31,1.31,0,0,1,.44,0c1,0,11.12,0,17.76,0h0c1.54,0,9.77,3.08,8.81,9.6,0,0,0,.11,0,.17L159.65,63a1,1,0,0,1,0,.17c-.1.34-2.43,8.33-10.17,10.65a1.85,1.85,0,0,1-.41.07l-16.32.46a.67.67,0,0,1-.2,0,15.07,15.07,0,0,1-9.56-5.8c-1.76,9.65-3.51,19.34-4.58,25.25A1.59,1.59,0,0,1,116.82,95.11Zm7-31.11c3.23,6.15,8.22,7.07,9,7.18l16-.46c5.56-1.79,7.58-7.62,7.81-8.34l4.39-26.85c.46-3-4.12-6.19-6-6.17l-8.6,0h-6.18c-1.15,0-2,0-2.59,0-2.69.46-7.48,4.74-9,8.72C128.31,39.31,126.14,51.08,123.79,64Z"/><path class="cls-2" d="M95.36,19.48a4.43,4.43,0,1,1-4.43-4.43A4.43,4.43,0,0,1,95.36,19.48Z"/><circle class="cls-2" cx="80.89" cy="4.43" r="4.43"/><path class="cls-2" d="M75.25,19.48a4.44,4.44,0,1,1-4.43-4.43A4.43,4.43,0,0,1,75.25,19.48Z"/><circle class="cls-2" cx="90.42" cy="79.83" r="4.43"/><circle class="cls-2" cx="61.32" cy="65.68" r="3.66"/><path class="cls-2" d="M74.76,79.83a3.67,3.67,0,1,1-3.66-3.67A3.66,3.66,0,0,1,74.76,79.83Z"/><circle class="cls-2" cx="61.06" cy="95.34" r="3.66"/><circle class="cls-2" cx="51.58" cy="79.83" r="2.84"/><circle class="cls-2" cx="16.66" cy="50.13" r="2.84"/><circle class="cls-2" cx="21.74" cy="35" r="2.84"/><path class="cls-2" d="M34.21,19.48a2.84,2.84,0,1,1-2.84-2.84A2.84,2.84,0,0,1,34.21,19.48Z"/><path class="cls-2" d="M44,4.77a2.84,2.84,0,1,1-2.84-2.84A2.84,2.84,0,0,1,44,4.77Z"/><circle class="cls-2" cx="41.4" cy="95.34" r="2.84"/><circle class="cls-2" cx="31.64" cy="79.83" r="2.84"/><circle class="cls-2" cx="21.61" cy="65.68" r="2.84"/><circle class="cls-2" cx="16.25" cy="79.83" r="1.47"/><circle class="cls-2" cx="7.1" cy="65.68" r="1.47"/><path class="cls-2" d="M2.93,49.87a1.47,1.47,0,1,1-1.46-1.46A1.47,1.47,0,0,1,2.93,49.87Z"/><circle class="cls-2" cx="6.69" cy="35.02" r="1.47"/><circle class="cls-2" cx="16.59" cy="19.63" r="1.47"/><circle class="cls-2" cx="41.27" cy="65.68" r="3.66"/><circle class="cls-2" cx="30.96" cy="50.17" r="3.66"/><path class="cls-2" d="M44.79,35a3.67,3.67,0,1,1-3.66-3.67A3.66,3.66,0,0,1,44.79,35Z"/><circle class="cls-2" cx="51.3" cy="19.48" r="3.66"/><circle class="cls-2" cx="60.93" cy="4.5" r="3.66"/><circle class="cls-2" cx="80.87" cy="95.34" r="4.43"/><path class="cls-2" d="M118.87,48.61H95.19l-9.68-15H65.13a4.43,4.43,0,1,0,0,2.72h19L92,48.61H55.18a4.45,4.45,0,1,0,.12,2.71h46.37L94,64.32H85.07a4.43,4.43,0,1,0,0,2.72h10l9.32-15.72h14.49Z"/></g></g></svg>