<svg width="37" height="37" viewBox="0 0 37 37" fill="none" xmlns="http://www.w3.org/2000/svg">
<rect width="37" height="37" rx="4" fill="#7AD06D"/>
<path d="M18.6668 8.21369C13.5061 8.45942 9.43361 12.7573 9.44926 17.9238C9.45403 19.4974 9.83392 20.9827 10.5041 22.295L9.47515 27.2896C9.41949 27.5597 9.66316 27.7963 9.93155 27.7327L14.8256 26.5732C16.0829 27.1995 17.4952 27.5613 18.9899 27.5841C24.2646 27.6647 28.6628 23.4764 28.8272 18.2037C29.0034 12.5516 24.3386 7.94358 18.6668 8.21369ZM24.5064 23.2597C23.0732 24.6929 21.1676 25.4822 19.1406 25.4822C17.9538 25.4822 16.8175 25.216 15.7633 24.6908L15.0817 24.3513L12.0812 25.0622L12.7128 21.9962L12.377 21.3387C11.8297 20.2668 11.5522 19.1078 11.5522 17.8938C11.5522 15.8669 12.3415 13.9613 13.7748 12.528C15.1952 11.1075 17.132 10.3053 19.1408 10.3053C21.1677 10.3054 23.0732 11.0947 24.5065 12.5279C25.9398 13.9612 26.7291 15.8668 26.7291 17.8937C26.7291 19.9025 25.9269 21.8393 24.5064 23.2597Z" fill="white"/>
<path d="M23.8423 19.9956L21.9651 19.4566C21.7183 19.3858 21.4525 19.4558 21.2727 19.639L20.8136 20.1067C20.6201 20.3039 20.3263 20.3673 20.0701 20.2636C19.1821 19.9043 17.3141 18.2434 16.8371 17.4126C16.6994 17.1729 16.7222 16.8733 16.8912 16.6547L17.292 16.1362C17.449 15.933 17.4821 15.6602 17.3783 15.4254L16.5885 13.6391C16.3993 13.2112 15.8526 13.0867 15.4954 13.3888C14.9715 13.8319 14.3498 14.5053 14.2743 15.2513C14.141 16.5665 14.7051 18.2245 16.8381 20.2154C19.3024 22.5153 21.2757 22.8192 22.5606 22.508C23.2893 22.3314 23.8717 21.6238 24.2393 21.0444C24.4898 20.6494 24.292 20.1248 23.8423 19.9956Z" fill="white"/>
</svg>
