<svg width="37" height="37" viewBox="0 0 37 37" fill="none" xmlns="http://www.w3.org/2000/svg">
<rect width="37" height="37" rx="4" fill="#238CC8"/>
<path fill-rule="evenodd" clip-rule="evenodd" d="M14.2801 25.7858V14.5445H10.5211V25.7858H14.2801ZM12.4007 13.0103C13.7114 13.0103 14.5275 12.1464 14.5275 11.0678C14.503 9.96533 13.7114 9.12549 12.4256 9.12549C11.1398 9.12549 10.2988 9.96533 10.2988 11.0678C10.2988 12.1464 11.1146 13.0103 12.3762 13.0103H12.4007Z" fill="white"/>
<path fill-rule="evenodd" clip-rule="evenodd" d="M16.3594 25.7857H20.1186V19.5081C20.1186 19.1722 20.1432 18.8364 20.2421 18.5966C20.5137 17.9251 21.1324 17.2298 22.1708 17.2298C23.5314 17.2298 24.0753 18.261 24.0753 19.7719V25.7857H27.8344V19.3407C27.8344 15.8879 25.9798 14.2811 23.5063 14.2811C21.4783 14.2811 20.588 15.408 20.0934 16.1754H20.1182V14.5445H16.3594C16.4087 15.5991 16.3594 25.7857 16.3594 25.7857Z" fill="white"/>
</svg>
