<svg width="36" height="37" viewBox="0 0 36 37" fill="none" xmlns="http://www.w3.org/2000/svg">
<rect width="36" height="37" rx="4" fill="#40BFF5"/>
<path d="M8.37891 24.4211C10.37 25.7009 12.6876 26.3804 15.0546 26.3782C23.1411 26.3782 27.7094 19.5485 27.4341 13.422C28.2871 12.8061 29.0232 12.0428 29.6077 11.168C28.8129 11.5199 27.9699 11.7509 27.1067 11.8533C28.016 11.3091 28.6963 10.4527 29.0206 9.4438C28.1658 9.9511 27.2306 10.3087 26.2554 10.5012C25.5991 9.80193 24.7306 9.33864 23.7843 9.18315C22.838 9.02767 21.8668 9.18867 21.0213 9.64122C20.1759 10.0938 19.5033 10.8126 19.1078 11.6862C18.7124 12.5599 18.6161 13.5395 18.8341 14.4734C17.1023 14.3872 15.4081 13.9374 13.8616 13.1535C12.315 12.3695 10.9508 11.2688 9.85751 9.92302C9.30056 10.882 9.13004 12.0172 9.38069 13.0975C9.63134 14.1778 10.2843 15.122 11.2066 15.7377C10.5148 15.7163 9.83809 15.5295 9.23318 15.193C9.1863 17.2111 10.6322 19.0983 12.7262 19.5187C12.085 19.6928 11.4126 19.7182 10.7602 19.5931C11.038 20.4587 11.5796 21.2156 12.3091 21.7581C13.0386 22.3005 13.9195 22.6012 14.8284 22.618C13.0026 24.0502 10.6827 24.6988 8.37891 24.4211H8.37891Z" fill="white"/>
</svg>
