<svg width="46" height="46" viewBox="0 0 46 46" fill="none" xmlns="http://www.w3.org/2000/svg">
<path d="M44.0773 3.86328H34.2395V0.988281H32.3617V3.86328H13.6293V0.988281H11.7516V3.86328H1.92266C1.36562 3.86328 0.988281 4.24062 0.988281 4.81562V44.0504C0.988281 44.6254 1.36562 45.0117 1.92266 45.0117H44.0684C44.6344 45.0117 45.0027 44.6254 45.0027 44.0504V4.81562C45.0117 4.24062 44.6344 3.86328 44.0773 3.86328ZM43.134 43.098H2.86602V5.77695H11.7605V8.65195H13.6383V5.77695H32.3707V8.65195H34.2484V5.77695H43.143V43.098H43.134Z" fill="#878686"/>
<path d="M7.54668 15.3452C6.98066 15.3452 6.6123 15.7315 6.6123 16.3065V38.3183C6.6123 38.8933 6.98965 39.2796 7.54668 39.2796H38.4529C39.0189 39.2796 39.3873 38.8933 39.3873 38.3183V16.3065C39.3873 15.7315 39.01 15.3452 38.4529 15.3452H7.54668ZM37.5186 37.3569H8.48106V17.2589H37.5186V37.3569Z" fill="#878686"/>
<path d="M21.1312 20.8975H19.2534V22.8111H21.1312V20.8975Z" fill="#878686"/>
<path d="M26.7557 20.8975H24.8779V22.8111H26.7557V20.8975Z" fill="#878686"/>
<path d="M32.3709 20.8975H30.4932V22.8111H32.3709V20.8975Z" fill="#878686"/>
<path d="M15.5071 26.3511H13.6294V28.2647H15.5071V26.3511Z" fill="#878686"/>
<path d="M21.1312 26.3511H19.2534V28.2647H21.1312V26.3511Z" fill="#878686"/>
<path d="M26.7557 26.3511H24.8779V28.2647H26.7557V26.3511Z" fill="#878686"/>
<path d="M32.3709 26.3511H30.4932V28.2647H32.3709V26.3511Z" fill="#878686"/>
<path d="M15.5071 31.9033H13.6294V33.817H15.5071V31.9033Z" fill="#878686"/>
<path d="M21.1312 31.9033H19.2534V33.817H21.1312V31.9033Z" fill="#878686"/>
<path d="M26.7557 31.9033H24.8779V33.817H26.7557V31.9033Z" fill="#878686"/>
<path d="M32.3709 31.9033H30.4932V33.817H32.3709V31.9033Z" fill="#878686"/>
</svg>
