<svg width="46" height="46" viewBox="0 0 46 46" fill="none" xmlns="http://www.w3.org/2000/svg">
<path d="M44.0773 0.988281H1.92266C1.36563 0.988281 0.988281 1.36562 0.988281 1.92266V35.641C0.988281 36.207 1.36563 36.5754 1.92266 36.5754H22.0566V43.134H15.498V45.0117H30.484V43.134H23.9254V36.5754H44.0594C44.6254 36.5754 44.9938 36.198 44.9938 35.641V1.92266C45.0117 1.36562 44.6344 0.988281 44.0773 0.988281ZM43.134 34.7066H2.86602V2.86602H43.143V34.7066H43.134Z" fill="#878686"/>
<path d="M7.54668 17.8518H21.1311C21.6971 17.8518 22.0654 17.4744 22.0654 16.9174V7.54668C22.0654 6.98066 21.6881 6.6123 21.1311 6.6123H7.54668C6.98066 6.6123 6.6123 6.98965 6.6123 7.54668V16.9174C6.6123 17.4744 6.98066 17.8518 7.54668 17.8518ZM8.48106 8.48105H20.1877V15.974H8.48106V8.48105Z" fill="#878686"/>
<path d="M24.8779 17.8518H38.4533C39.0193 17.8518 39.3877 17.4744 39.3877 16.9174V7.54668C39.3877 6.98066 39.0103 6.6123 38.4533 6.6123H24.8779C24.3119 6.6123 23.9435 6.98965 23.9435 7.54668V16.9174C23.9345 17.4744 24.3119 17.8518 24.8779 17.8518ZM25.8123 8.48105H37.5189V15.974H25.8123V8.48105Z" fill="#878686"/>
<path d="M7.54668 30.9602H38.4529C39.0189 30.9602 39.3873 30.5828 39.3873 30.0258V20.6551C39.3873 20.0891 39.01 19.7207 38.4529 19.7207H7.54668C6.98066 19.7207 6.6123 20.098 6.6123 20.6551V30.0258C6.6123 30.5828 6.98066 30.9602 7.54668 30.9602ZM8.48106 21.5984H37.5186V29.0914H8.48106V21.5984Z" fill="#878686"/>
</svg>
