<svg width="46" height="46" viewBox="0 0 46 46" fill="none" xmlns="http://www.w3.org/2000/svg">
<path d="M6.19932 10.5295C10.6825 9.30762 14.2403 9.30762 18.7235 10.5295L19.1907 8.65176C14.3302 7.34004 10.404 7.34004 5.6333 8.65176L6.19932 10.5295Z" fill="#878686"/>
<path d="M5.73193 15.4081L6.19912 17.187C10.6823 15.9651 14.2401 15.9651 18.7233 17.187L19.2804 15.4081C14.4288 14.0964 10.5026 14.0964 5.73193 15.4081Z" fill="#878686"/>
<path d="M5.73193 22.0565L6.19912 23.8354C10.6823 22.6136 14.2401 22.6136 18.7233 23.8354L19.2804 22.0565C14.4288 20.7448 10.5026 20.7448 5.73193 22.0565Z" fill="#878686"/>
<path d="M5.64209 28.705L6.19912 30.4839C10.6823 29.262 14.2401 29.262 18.7233 30.4839L19.1905 28.705C14.339 27.3933 10.4128 27.3933 5.64209 28.705Z" fill="#878686"/>
<path d="M26.6743 8.66104L27.2313 10.5388C31.7146 9.31689 35.2724 9.31689 39.7556 10.5388L40.2228 8.66104C35.3622 7.34932 31.436 7.34932 26.6743 8.66104Z" fill="#878686"/>
<path d="M26.6743 15.3095L27.1415 17.1872C31.7235 15.9653 35.1825 15.9653 39.7556 17.1872L40.2228 15.3095C35.3622 13.9978 31.436 13.9978 26.6743 15.3095Z" fill="#878686"/>
<path d="M26.6743 21.9579L27.2313 23.8356C31.7146 22.6138 35.2724 22.6138 39.7556 23.8356L40.2228 21.9579C35.3622 20.6462 31.436 20.6462 26.6743 21.9579Z" fill="#878686"/>
<path d="M44.3378 3.41406C39.9444 1.82383 36.6741 1.16797 33.4937 1.16797C30.394 1.16797 27.2046 1.78789 22.9819 3.29727C18.7503 1.78789 15.5608 1.16797 12.4702 1.16797C9.28975 1.16797 6.01943 1.82383 1.62607 3.41406C1.24873 3.50391 0.970215 3.88125 0.970215 4.25859V37.5996C0.970215 38.4891 1.90459 38.534 2.18311 38.4441C6.29795 36.9437 9.37959 36.2879 12.3714 36.2879C15.3632 36.2879 18.355 36.9437 22.5597 38.4441C22.8472 38.516 23.0628 38.4891 23.2245 38.4262C24.2577 38.0578 26.0726 37.4648 27.2675 37.0965C27.546 37.5457 27.8784 37.968 28.2647 38.3543C30.7714 40.8609 34.6886 41.0766 37.4378 39.0012L43.2597 44.832L44.5804 43.5113L38.7675 37.6805C38.9472 37.4469 39.1089 37.2133 39.2526 36.9617C40.6632 37.384 42.5229 38.0039 43.7808 38.4441C44.0593 38.534 44.9937 38.534 44.9937 37.5996V4.25859C44.9937 3.88125 44.7151 3.50391 44.3378 3.41406ZM22.0026 36.2879C18.1663 34.9762 15.2733 34.4102 12.3714 34.4102C9.46943 34.4102 6.48662 34.9762 2.74014 36.2879V4.91445C6.57647 3.50391 9.47842 2.94687 12.3714 2.94687C15.2644 2.94687 18.1663 3.51289 22.0026 4.91445V36.2879ZM29.5854 37.0336C27.5819 35.0211 27.5819 31.7598 29.5854 29.7473C31.589 27.7348 34.8503 27.7348 36.8538 29.7473C38.8573 31.7598 38.8573 35.0211 36.8538 37.0336C34.8413 39.0461 31.589 39.0461 29.5854 37.0336ZM43.1249 36.2879C42.3433 36.0273 40.9597 35.6051 39.9624 35.2996C40.6272 32.9277 40.0343 30.2773 38.1745 28.4176C35.4343 25.6773 30.996 25.6773 28.2647 28.4176C26.369 30.3133 25.7851 33.0266 26.5128 35.4254C25.7312 35.677 24.5722 36.0453 23.7815 36.2969V4.94141C27.7347 3.40508 30.8073 2.93789 33.5925 2.93789C36.3956 2.93789 39.2976 3.50391 43.1249 4.90547V36.2879Z" fill="#878686"/>
</svg>
