<svg width="44" height="44" viewBox="0 0 44 44" fill="none" xmlns="http://www.w3.org/2000/svg">
<path d="M42.9099 39.292H40.7284V25.4679C40.7284 25.275 40.6518 25.0901 40.5155 24.9537C40.3791 24.8173 40.1941 24.7407 40.0013 24.7407C39.8844 24.7401 39.7691 24.768 39.6655 24.822C39.5618 24.876 39.4728 24.9545 39.4063 25.0506L29.2221 39.5978C29.1668 39.6757 29.1275 39.7639 29.1065 39.8571C29.0855 39.9503 29.0832 40.0468 29.0998 40.1409C29.1163 40.2351 29.1513 40.325 29.2028 40.4055C29.2543 40.486 29.3212 40.5555 29.3997 40.61C29.5204 40.6958 29.6648 40.742 29.8129 40.7422H39.2865V42.9237C39.2865 43.1165 39.3631 43.3015 39.4995 43.4378C39.6359 43.5742 39.8208 43.6508 40.0137 43.6508C40.2065 43.6508 40.3915 43.5742 40.5279 43.4378C40.6642 43.3015 40.7408 43.1165 40.7408 42.9237V40.7422H42.9223C43.1151 40.7422 43.3001 40.6656 43.4365 40.5292C43.5728 40.3929 43.6494 40.2079 43.6494 40.0151C43.6494 39.8222 43.5728 39.6373 43.4365 39.5009C43.3001 39.3645 43.1151 39.2879 42.9223 39.2879L42.9099 39.292ZM39.2741 39.292H31.2135L39.2865 27.7733L39.2741 39.292Z" fill="#878686"/>
<path d="M29.8173 42.1842H21.2031L29.21 32.7684C29.2301 32.7483 29.2481 32.7262 29.2637 32.7023C29.9902 31.6298 30.2777 30.3195 30.0671 29.0413C29.8565 27.7631 29.1638 26.6144 28.1317 25.8316C27.2624 25.2065 26.2374 24.8334 25.1697 24.7535C24.102 24.6736 23.0329 24.8899 22.0803 25.3787C21.1276 25.8674 20.3283 26.6095 19.7704 27.5234C19.2125 28.4373 18.9177 29.4874 18.9183 30.5581C18.9183 30.7509 18.9949 30.9359 19.1313 31.0722C19.2677 31.2086 19.4526 31.2852 19.6455 31.2852C19.8383 31.2852 20.0233 31.2086 20.1596 31.0722C20.296 30.9359 20.3726 30.7509 20.3726 30.5581C20.3733 29.7553 20.5953 28.9683 21.0142 28.2834C21.433 27.5986 22.0325 27.0425 22.7468 26.6762C23.4611 26.3098 24.2626 26.1475 25.0631 26.2069C25.8637 26.2664 26.6324 26.5454 27.2847 27.0132C28.0037 27.5714 28.4844 28.3813 28.6301 29.2798C28.7757 30.1783 28.5755 31.0986 28.0697 31.8554L19.0794 42.4528C18.9877 42.558 18.9284 42.6874 18.9087 42.8255C18.8889 42.9637 18.9095 43.1046 18.968 43.2312C19.0266 43.3579 19.1205 43.4649 19.2385 43.5394C19.3565 43.6139 19.4935 43.6526 19.6331 43.6509H29.8173C30.0102 43.6509 30.1951 43.5743 30.3315 43.438C30.4679 43.3016 30.5445 43.1166 30.5445 42.9238C30.5445 42.7309 30.4679 42.546 30.3315 42.4096C30.1951 42.2732 30.0102 42.1966 29.8173 42.1966V42.1842Z" fill="#878686"/>
<path d="M19.6496 38.5736C19.6529 38.4781 19.6374 38.3828 19.6039 38.2933C19.5704 38.2038 19.5195 38.1218 19.4543 38.052C19.3891 37.9822 19.3107 37.9259 19.2237 37.8863C19.1367 37.8468 19.0428 37.8248 18.9473 37.8216C14.3725 37.6483 10.0316 35.7553 6.79173 32.5208C3.55189 29.2864 1.65171 24.9486 1.47083 20.3741H4.36291C4.55577 20.3741 4.74072 20.2975 4.87709 20.1611C5.01345 20.0247 5.09007 19.8398 5.09007 19.6469C5.09007 19.4541 5.01345 19.2691 4.87709 19.1328C4.74072 18.9964 4.55577 18.9198 4.36291 18.9198H1.47083C1.64654 14.3522 3.53998 10.0193 6.7725 6.78759C10.005 3.55583 14.3384 1.66342 18.906 1.48879V3.64133C18.906 3.73682 18.9248 3.83137 18.9613 3.9196C18.9979 4.00782 19.0514 4.08798 19.1189 4.1555C19.1865 4.22302 19.2666 4.27659 19.3548 4.31313C19.4431 4.34967 19.5376 4.36848 19.6331 4.36848C19.7286 4.36848 19.8232 4.34967 19.9114 4.31313C19.9996 4.27659 20.0798 4.22302 20.1473 4.1555C20.2148 4.08798 20.2684 4.00782 20.3049 3.9196C20.3415 3.83137 20.3603 3.73682 20.3603 3.64133V1.48879C24.8691 1.66303 29.1515 3.51017 32.3726 6.67011C35.5936 9.83005 37.5224 14.0763 37.783 18.581L34.9446 15.7426C34.8768 15.6751 34.7963 15.6215 34.7078 15.5851C34.6193 15.5486 34.5245 15.53 34.4288 15.5302C34.2355 15.5306 34.0502 15.6077 33.9138 15.7447C33.7774 15.8817 33.701 16.0672 33.7013 16.2605C33.7017 16.4538 33.7789 16.6391 33.9159 16.7755L37.9772 20.8327C38.0545 20.9259 38.1539 20.9984 38.2664 21.0434L38.3531 21.0641C38.4029 21.0808 38.4541 21.0933 38.506 21.1012H38.5473C38.6022 21.0966 38.6562 21.0855 38.7085 21.0682H38.7994C38.8979 21.0343 38.987 20.9776 39.0596 20.9029L43.1912 16.7714C43.3276 16.6333 43.4036 16.4467 43.4024 16.2526C43.4013 16.0585 43.3231 15.8729 43.185 15.7364C43.0469 15.6 42.8603 15.524 42.6662 15.5252C42.4721 15.5263 42.2865 15.6046 42.15 15.7426L39.258 18.6347C39.008 13.6137 36.839 8.88041 33.1991 5.41275C29.5592 1.94509 24.7265 0.00792701 19.6992 0.00143489H19.6496C19.6318 -0.000478296 19.6138 -0.000478296 19.5959 0.00143489C14.3994 0.00362473 9.41641 2.06889 5.74193 5.74337C2.06746 9.41784 0.00218984 14.4009 0 19.5974C0 19.5974 0 19.6304 0 19.6469C0 19.6635 0 19.68 0 19.7006C0.00502267 24.7755 1.97575 29.6511 5.49853 33.3041C9.02132 36.9571 13.8222 39.1033 18.8936 39.2924H18.9225C19.1136 39.2914 19.2967 39.2156 19.4326 39.0812C19.5685 38.9469 19.6464 38.7646 19.6496 38.5736Z" fill="#878686"/>
<path d="M29.4041 9.87578C29.3365 9.8082 29.2564 9.75458 29.1681 9.718C29.0798 9.68143 28.9852 9.6626 28.8897 9.6626C28.7942 9.6626 28.6996 9.68143 28.6113 9.718C28.523 9.75458 28.4429 9.8082 28.3753 9.87578L20.5584 17.6885C20.2662 17.5598 19.9503 17.4933 19.6309 17.4933C19.3115 17.4933 18.9957 17.5598 18.7034 17.6885L14.985 13.9701C14.8486 13.8337 14.6635 13.7571 14.4706 13.7571C14.2777 13.7571 14.0926 13.8337 13.9562 13.9701C13.8198 14.1066 13.7432 14.2916 13.7432 14.4845C13.7432 14.6774 13.8198 14.8625 13.9562 14.9989L17.6498 18.6925C17.4258 19.1566 17.3736 19.685 17.5025 20.184C17.6314 20.6829 17.9331 21.1199 18.354 21.4173C18.7748 21.7147 19.2875 21.8532 19.8008 21.8082C20.3141 21.7632 20.7949 21.5375 21.1575 21.1714C21.4763 20.8529 21.6875 20.4427 21.7615 19.9982C21.8356 19.5537 21.7689 19.0972 21.5707 18.6925L29.3793 10.8839C29.5129 10.7516 29.5902 10.5728 29.5948 10.3848C29.5994 10.1969 29.5311 10.0144 29.4041 9.87578ZM20.1453 20.1633C20.0064 20.295 19.8223 20.3683 19.6309 20.3683C19.4395 20.3683 19.2554 20.295 19.1165 20.1633C19.0149 20.0616 18.9457 19.932 18.9177 19.791C18.8897 19.65 18.9041 19.5038 18.9592 19.371C19.0142 19.2381 19.1074 19.1246 19.227 19.0447C19.3465 18.9648 19.4871 18.9222 19.6309 18.9222C19.7747 18.9222 19.9153 18.9648 20.0348 19.0447C20.1544 19.1246 20.2476 19.2381 20.3027 19.371C20.3577 19.5038 20.3721 19.65 20.3441 19.791C20.3161 19.932 20.2469 20.0616 20.1453 20.1633Z" fill="#878686"/>
</svg>
