<svg width="36" height="37" viewBox="0 0 36 37" fill="none" xmlns="http://www.w3.org/2000/svg">
<rect width="36" height="37" rx="4" fill="#444444"/>
<path d="M24.45 15.4445H12.55C11.105 15.4445 10 16.6 10 18.1111V23.4444H13.4V27H23.6V23.4444H27V18.1111C27 16.6 25.895 15.4445 24.45 15.4445ZM21.9 25.2222H15.1V20.7778H21.9V25.2222ZM24.45 19C23.94 19 23.6 18.6444 23.6 18.1111C23.6 17.5778 23.94 17.2222 24.45 17.2222C24.96 17.2222 25.3 17.5778 25.3 18.1111C25.3 18.6444 24.96 19 24.45 19ZM23.6 11H13.4V14.5556H23.6V11Z" fill="white"/>
</svg>
