<svg width="34" height="34" viewBox="0 0 34 34" fill="none" xmlns="http://www.w3.org/2000/svg">
<path d="M12.4482 8.30664C10.1606 8.30664 8.29932 10.1678 8.29932 12.4555C8.29932 14.7433 10.1606 16.6044 12.4482 16.6044C14.7358 16.6044 16.597 14.7433 16.597 12.4555C16.597 10.1678 14.7358 8.30664 12.4482 8.30664ZM12.4482 15.1032C10.9883 15.1031 9.80058 13.9155 9.80058 12.4555C9.80058 10.9956 10.9883 9.80791 12.4482 9.80791C13.908 9.80791 15.0957 10.9956 15.0957 12.4555C15.0957 13.9155 13.908 15.1032 12.4482 15.1032Z" fill="#02204D"/>
<path d="M21.5522 17.4109C19.2646 17.4109 17.4034 19.2721 17.4034 21.5598C17.4034 23.8475 19.2646 25.7087 21.5522 25.7087C23.8399 25.7087 25.7011 23.8475 25.7011 21.5598C25.7011 19.2721 23.8399 17.4109 21.5522 17.4109ZM21.5522 24.2073C20.0924 24.2073 18.9047 23.0196 18.9047 21.5597C18.9047 20.0998 20.0924 18.9121 21.5522 18.9121C23.0122 18.9121 24.1999 20.0998 24.1999 21.5597C24.1999 23.0196 23.0122 24.2073 21.5522 24.2073Z" fill="#02204D"/>
<path d="M23.7229 10.3179C23.4298 10.0249 22.9546 10.0248 22.6614 10.3179L10.2367 22.7428C9.94357 23.0359 9.94357 23.5111 10.2367 23.8042C10.3833 23.9508 10.5753 24.024 10.7675 24.024C10.9595 24.024 11.1516 23.9508 11.2982 23.8042L23.723 11.3793C24.016 11.0862 24.016 10.6111 23.7229 10.3179Z" fill="#02204D"/>
<path d="M32.8852 16.9999C32.8852 16.4764 33.1484 15.8464 33.4031 15.2372C33.7806 14.3342 34.1708 13.4005 33.9212 12.4666C33.6613 11.4942 32.8372 10.8693 32.0402 10.265C31.5074 9.86086 31.0041 9.47925 30.7595 9.05642C30.5075 8.62097 30.4258 7.98535 30.3394 7.31243C30.2132 6.33004 30.0826 5.31418 29.3842 4.61569C28.6857 3.9172 27.6699 3.78673 26.6876 3.6605C26.0146 3.57402 25.379 3.49242 24.9435 3.24045C24.5207 2.99581 24.139 2.49252 23.735 1.95967C23.1306 1.16272 22.5057 0.338733 21.5334 0.078783C20.5994 -0.170824 19.6657 0.219426 18.7628 0.596891C18.1536 0.851548 17.5236 1.11484 17 1.11484C16.4765 1.11484 15.8466 0.851548 15.2373 0.596891C14.3343 0.219508 13.4009 -0.170824 12.4667 0.078783C11.4943 0.338651 10.8694 1.16272 10.265 1.95967C9.86103 2.49252 9.47941 2.99581 9.0565 3.24045C8.62097 3.49242 7.98543 3.57402 7.31243 3.6605C6.33004 3.78673 5.31427 3.9172 4.61577 4.61569C3.91736 5.31418 3.78682 6.32996 3.66059 7.31235C3.5741 7.98527 3.4925 8.62097 3.24045 9.05642C2.99589 9.47925 2.49252 9.86086 1.95967 10.265C1.1628 10.8692 0.338815 11.4942 0.0787838 12.4666C-0.170742 13.4004 0.219509 14.3341 0.596811 15.2371C0.851467 15.8463 1.11476 16.4763 1.11476 16.9998C1.11476 17.5233 0.851467 18.1533 0.596811 18.7625C0.219427 19.6655 -0.170823 20.5992 0.0787838 21.533C0.338734 22.5055 1.1628 23.1304 1.95976 23.7347C2.4926 24.1388 2.99589 24.5204 3.24053 24.9433C3.4925 25.3787 3.57418 26.0143 3.66059 26.6872C3.78682 27.6696 3.91736 28.6855 4.61577 29.384C5.31427 30.0825 6.33012 30.213 7.31243 30.3392C7.98543 30.4257 8.62097 30.5073 9.0565 30.7592C9.47925 31.0039 9.86095 31.5071 10.265 32.04C10.8693 32.8369 11.4942 33.661 12.4666 33.9209C13.4003 34.1705 14.3342 33.7802 15.2372 33.4028C15.8463 33.1481 16.4764 32.8848 17 32.8848C17.5235 32.8848 18.1534 33.1481 18.7628 33.4028C19.4674 33.6973 20.1906 33.9996 20.9182 33.9996C21.123 33.9996 21.3281 33.9757 21.5332 33.9209C22.5056 33.661 23.1306 32.8369 23.735 32.04C24.1391 31.5071 24.5207 31.0039 24.9435 30.7592C25.3789 30.5073 26.0146 30.4257 26.6875 30.3392C27.6699 30.2129 28.6857 30.0824 29.3841 29.384C30.0826 28.6855 30.2132 27.6696 30.3393 26.6872C30.4258 26.0143 30.5074 25.3787 30.7593 24.9433C31.004 24.5204 31.5073 24.1388 32.0402 23.7347C32.8371 23.1304 33.6611 22.5055 33.9211 21.5331C34.1707 20.5993 33.7804 19.6656 33.403 18.7626C33.1484 18.1534 32.8852 17.5234 32.8852 16.9999ZM32.2761 19.2336C32.5883 19.9806 32.8832 20.6861 32.7411 21.2176C32.5895 21.7853 31.9642 22.2594 31.3022 22.7614C30.6965 23.2208 30.0701 23.6957 29.7022 24.3315C29.3274 24.9795 29.226 25.7685 29.1279 26.5315C29.0232 27.3466 28.9243 28.1163 28.5205 28.5202C28.1167 28.9239 27.347 29.0228 26.532 29.1275C25.769 29.2256 24.9798 29.327 24.3319 29.7018C23.6961 30.0697 23.2211 30.696 22.7618 31.3018C22.2598 31.9637 21.7857 32.5889 21.218 32.7407C20.6865 32.8828 19.9809 32.5878 19.234 32.2757C18.5136 31.9746 17.7688 31.6632 17.0002 31.6632C16.2316 31.6632 15.4867 31.9745 14.7663 32.2757C14.0193 32.5879 13.3139 32.8826 12.7824 32.7407C12.2147 32.589 11.7406 31.9637 11.2386 31.3018C10.7792 30.6961 10.3043 30.0697 9.66859 29.7019C9.02059 29.327 8.23154 29.2256 7.46846 29.1276C6.65343 29.0229 5.88368 28.924 5.47991 28.5203C5.07606 28.1165 4.97719 27.3466 4.87247 26.5316C4.77441 25.7685 4.67302 24.9796 4.29808 24.3316C3.93023 23.6958 3.30389 23.2208 2.69815 22.7614C2.03623 22.2595 1.41095 21.7853 1.25931 21.2177C1.1172 20.6862 1.41209 19.9807 1.72424 19.2337C2.02531 18.5133 2.33673 17.7685 2.33673 16.9999C2.33673 16.2313 2.02539 15.4864 1.72424 14.766C1.41209 14.0191 1.1172 13.3136 1.25931 12.782C1.41095 12.2144 2.03623 11.7403 2.69807 11.2383C3.30381 10.7789 3.93031 10.3039 4.298 9.66818C4.67294 9.02018 4.77441 8.23113 4.87247 7.46797C4.97711 6.65302 5.07606 5.88327 5.47983 5.4795C5.8836 5.07573 6.65335 4.97687 7.46838 4.87214C8.23137 4.77409 9.02051 4.6727 9.66851 4.29784C10.3043 3.92998 10.7793 3.30364 11.2386 2.69783C11.7406 2.0359 12.2147 1.4107 12.7824 1.25898C13.314 1.11695 14.0194 1.41184 14.7664 1.72399C15.4868 2.02507 16.2316 2.33641 17.0002 2.33641C17.7688 2.33641 18.5136 2.02507 19.234 1.72399C19.9811 1.41176 20.6866 1.11695 21.218 1.25898C21.7857 1.4107 22.2598 2.0359 22.7617 2.69783C23.2211 3.30364 23.6961 3.93006 24.3318 4.29784C24.9798 4.67278 25.7689 4.77417 26.532 4.87214C27.347 4.97687 28.1168 5.07573 28.5205 5.4795C28.9243 5.88327 29.0232 6.6531 29.1279 7.46814C29.226 8.23121 29.3274 9.02026 29.7023 9.66826C30.0702 10.304 30.6965 10.779 31.3022 11.2384C31.9642 11.7404 32.5894 12.2144 32.7411 12.7821C32.8832 13.3137 32.5883 14.0192 32.2761 14.766C31.975 15.4864 31.6636 16.2313 31.6636 16.9999C31.6636 17.7684 31.9749 18.5133 32.2761 19.2336Z" fill="#02204D"/>
</svg>
