<svg width="35" height="22" viewBox="0 0 35 22" fill="none" xmlns="http://www.w3.org/2000/svg">
<path d="M30.2346 1.66435e-06H4.77236C4.53952 -0.00033349 4.30892 0.0499527 4.09375 0.147979C3.87858 0.246006 3.68308 0.389847 3.51844 0.571263C3.3538 0.752679 3.22326 0.968105 3.1343 1.2052C3.04534 1.4423 2.9997 1.6964 3.00001 1.95296V18.6282C2.9997 18.6769 3.00814 18.7252 3.02485 18.7703C3.04155 18.8154 3.06618 18.8564 3.09732 18.891C3.12847 18.9255 3.16551 18.9529 3.20631 18.9716C3.24711 18.9904 3.29087 19 3.33507 19C3.38622 19.0003 3.43693 18.9894 3.48419 18.9678C3.53146 18.9463 3.57433 18.9145 3.61029 18.8744C3.64624 18.8343 3.67456 18.7867 3.69357 18.7344C3.71257 18.682 3.72189 18.626 3.72096 18.5697V1.95296C3.72218 1.64635 3.83342 1.35271 4.0304 1.13614C4.22737 0.919568 4.4941 0.797642 4.77236 0.796973H30.2346C30.5128 0.797642 30.7796 0.919568 30.9765 1.13614C31.1735 1.35271 31.2848 1.64635 31.286 1.95296V18.6104C31.2857 18.6617 31.2946 18.7125 31.3123 18.7599C31.3299 18.8073 31.356 18.8504 31.3888 18.8866C31.4217 18.9229 31.4608 18.9516 31.5039 18.971C31.5469 18.9905 31.593 19.0003 31.6395 19C31.7351 19 31.8268 18.9581 31.8944 18.8837C31.962 18.8092 32 18.7081 32 18.6028V1.95296C32.0006 1.43612 31.815 0.940141 31.484 0.573963C31.153 0.207785 30.7036 0.00135068 30.2346 1.66435e-06Z" fill="white"/>
<path d="M2.89454e-10 19.0325V21.755C2.89454e-10 21.8165 0.024361 21.8754 0.0677241 21.9189C0.111087 21.9623 0.1699 21.9867 0.231225 21.9867H34.3693C34.4306 21.9867 34.4894 21.9623 34.5328 21.9189C34.5761 21.8754 34.6005 21.8165 34.6005 21.755V19.0325C34.6005 18.971 34.5761 18.9121 34.5328 18.8686C34.4894 18.8252 34.4306 18.8008 34.3693 18.8008H0.228913C0.16799 18.8014 0.109769 18.8261 0.0669046 18.8695C0.0240404 18.9128 -3.04609e-06 18.9714 2.89454e-10 19.0325ZM33.8768 21.3078H1.04282C0.9815 21.3078 0.922687 21.2834 0.879324 21.24C0.835961 21.1965 0.811599 21.1376 0.811599 21.0761V19.8064C0.811599 19.7449 0.835961 19.686 0.879324 19.6425C0.922687 19.5991 0.9815 19.5747 1.04282 19.5747H13.1752C13.2206 19.5747 13.265 19.5881 13.3028 19.6133C13.3406 19.6384 13.3702 19.6741 13.3879 19.716L13.6192 20.2489C13.6369 20.2908 13.6665 20.3266 13.7043 20.3517C13.7421 20.3768 13.7865 20.3903 13.8319 20.3903H20.875C20.9204 20.3903 20.9648 20.3768 21.0026 20.3517C21.0404 20.3266 21.07 20.2908 21.0877 20.2489L21.3189 19.716C21.3365 19.6745 21.3657 19.639 21.4031 19.6139C21.4405 19.5888 21.4844 19.5752 21.5294 19.5747H33.6664C33.7277 19.5747 33.7865 19.5991 33.8299 19.6425C33.8732 19.686 33.8976 19.7449 33.8976 19.8064V21.3055L33.8768 21.3078Z" fill="white"/>
<path d="M23.1339 8.92084C23.1339 8.24486 22.866 7.59657 22.389 7.11859C21.912 6.6406 21.265 6.37207 20.5905 6.37207H14.0144C13.3399 6.37207 12.6929 6.6406 12.2159 7.11859C11.7389 7.59657 11.4709 8.24486 11.4709 8.92084V11.8079C11.4709 12.4839 11.7389 13.1322 12.2159 13.6102C12.6929 14.0881 13.3399 14.3567 14.0144 14.3567H20.5835C21.2581 14.3567 21.905 14.0881 22.382 13.6102C22.859 13.1322 23.127 12.4839 23.127 11.8079L23.1339 8.92084ZM19.5222 10.4408L16.5856 11.8913C16.47 11.9539 16.07 11.8705 16.07 11.7407V8.76096C16.07 8.62889 16.4747 8.54548 16.588 8.61267L19.3858 10.1396C19.513 10.2068 19.6424 10.376 19.5222 10.4408Z" fill="white"/>
</svg>
