<svg width="46" height="46" viewBox="0 0 46 46" fill="none" xmlns="http://www.w3.org/2000/svg">
<path d="M1.9693 17C1.38213 17 1 17.4035 1 18.0041V40.9959C1 41.5965 1.39145 42 1.9693 42H34.0307C34.6179 42 35 41.5965 35 40.9959V18.0041C35 17.4035 34.6086 17 34.0307 17H1.9693ZM33.0614 39.9917H2.9386V18.9989H33.0614V39.9917Z" fill="#878686"/>
<path d="M11.9693 5C11.3821 5 11 5.40353 11 6.00413V17.5L34 18C34 18.6006 33.4221 27.9917 34 27.9917V30H44.0307C44.6179 30 45 29.5965 45 28.9959V6.00413C45 5.40353 44.6086 5 44.0307 5H11.9693ZM43.0614 27.9917H34V18L12.9386 17.4953V6.99887H43.0614V27.9917Z" fill="#878686"/>
<rect x="11" y="11" width="34" height="2" fill="#878686"/>
<path d="M6.28509 23C6.11239 23 6 23.0968 6 23.241V28.759C6 28.9032 6.11513 29 6.28509 29H15.7149C15.8876 29 16 28.9032 16 28.759V23.241C16 23.0968 15.8849 23 15.7149 23H6.28509ZM15 28H7V24H15V28Z" fill="#878686"/>
<rect x="16" y="33" width="15" height="2" fill="#878686"/>
</svg>
