<svg width="44" height="30" viewBox="0 0 44 30" fill="none" xmlns="http://www.w3.org/2000/svg">
<path d="M32.0448 24.0513H13.9468L14.1351 25.4133H31.3783L32.0448 24.0513Z" fill="#878686"/>
<path d="M0.891661 1.27312L0.830078 25.3519H7.04991V24.0514H2.34066V1.95415H26.9737V24.0514L13.9508 24.6817L14.0703 25.3664L27.7453 25.3338C28.0496 25.3012 28.4154 25.4425 28.4263 24.7759L28.4698 1.29486C28.4698 1.49772 28.4698 0.983324 28.3321 0.849291C28.209 0.668166 28.0061 0.559491 27.7887 0.552246H1.45315C1.14161 0.552246 0.891661 0.805821 0.891661 1.11373V1.27675V1.27312Z" fill="#878686"/>
<path d="M10.2882 21.4614C8.0531 21.4614 6.2998 23.1966 6.2998 25.3991C6.2998 27.6016 8.04947 29.3404 10.2882 29.3404C12.5269 29.3404 14.2693 27.6052 14.2693 25.3991C14.2693 23.193 12.5196 21.4614 10.2882 21.4614ZM10.2882 27.7646C9.01306 27.7646 7.8937 26.6633 7.8937 25.3991C7.8937 24.1348 9.01306 23.0372 10.2882 23.0372C11.5633 23.0372 12.6754 24.1385 12.6754 25.3991C12.6754 26.6597 11.5633 27.7646 10.2882 27.7646Z" fill="#878686"/>
<path d="M35.3058 21.4614C33.0707 21.4614 31.3174 23.1966 31.3174 25.3991C31.3174 27.6016 33.067 29.3404 35.3058 29.3404C37.5445 29.3404 39.2869 27.6052 39.2869 25.3991C39.2869 23.193 37.5372 21.4614 35.3058 21.4614ZM35.3058 27.7646C34.0306 27.7646 32.9113 26.6633 32.9113 25.3991C32.9113 24.1348 34.0306 23.0372 35.3058 23.0372C36.5809 23.0372 37.693 24.1385 37.693 25.3991C37.693 26.6597 36.5809 27.7646 35.3058 27.7646Z" fill="#878686"/>
<path d="M39.6853 15.2778H42.1015C42.3406 15.2778 42.5507 15.5531 42.5507 15.7922V24.0515H37.8415L38.0806 25.3665L43.0253 25.3556C43.6121 25.3556 44.0033 25.0006 43.9997 24.4138V15.7197C43.9997 14.2707 42.5507 13.9049 42.0943 13.9013L40.4026 13.8759L36.3635 8.15959C35.994 7.64881 35.4035 7.34814 34.7732 7.34814H27.9194L28.0788 8.75005H34.4834C34.7841 8.75005 35.0666 8.89495 35.2441 9.13766L39.6853 15.2814V15.2778Z" fill="#878686"/>
</svg>
