<svg width="43" height="41" viewBox="0 0 43 41" fill="none" xmlns="http://www.w3.org/2000/svg">
<path d="M0.497323 7.75465C0.198008 7.86481 0 8.15398 0 8.47068V31.8196C0 32.4071 0.359178 32.9303 0.902549 33.146L19.7732 40.6276L20.0771 40.7699L20.2935 40.8617C20.731 41.0499 21.2283 41.0453 21.6658 40.8525L21.8592 40.7653L22.1907 40.623L41.8672 32.8247L42.1159 32.7284C42.65 32.5218 43 32.0123 43 31.4478V9.33358C43 8.73231 42.6316 8.1907 42.0698 7.97038L22.1263 0.130812C21.6842 -0.0436042 21.1915 -0.0436042 20.7494 0.130812L0.497323 7.75465ZM21.6197 1.70515L28.7388 4.54172L28.8079 4.56926L10.8352 11.7846L10.1307 12.0508L2.50964 9.03065L21.6243 1.70515H21.6197ZM20.0817 38.6861V38.8329L1.78668 31.5809V10.6279L19.7778 17.7928L20.0817 17.9351V38.6861ZM21.5368 16.1404L20.9889 16.3516L20.4409 16.1404L12.3686 13.1249L13.0962 12.8036L31.0965 5.57445L31.2346 5.53773L39.2701 8.7369L39.7306 8.93426L21.546 16.145L21.5368 16.1404ZM41.2133 31.177L21.8638 38.8467V17.9397L22.1953 17.7974L41.2133 10.2607V31.1816V31.177Z" fill="#878686"/>
</svg>
