<svg width="30" height="42" viewBox="0 0 30 42" fill="none" xmlns="http://www.w3.org/2000/svg">
<path d="M23.7179 30.1246L25.024 28.4467C25.1056 28.3424 25.151 28.2109 25.151 28.0748V27.5261C25.151 26.9638 25.0104 26.406 24.7292 25.9162C23.1239 23.0865 20.3939 20.8735 17.1152 19.9348C20.87 18.4065 23.3824 14.6879 23.3824 10.6337C23.3824 5.06945 18.8384 0.552722 13.2651 0.593536C8.28124 0.629815 4.00032 4.43457 3.37905 9.38211C2.79405 14.0213 5.5059 18.3929 9.77321 20.0209C7.22915 20.81 4.93904 22.4153 3.32009 24.5558C1.61045 26.8096 0.708008 29.4943 0.708008 32.3195V40.7906C0.708008 41.1307 0.984635 41.4074 1.32475 41.4074H17.9677C18.1219 41.4074 18.2489 41.2804 18.2489 41.1262V40.1739C18.2489 40.0469 18.1446 39.9426 18.0176 39.9426H2.21812V32.5462C2.21812 26.338 7.0795 21.0685 13.2877 20.9098C17.5233 20.8009 21.26 23.0185 23.3053 26.3788C23.4413 26.6055 23.5093 26.864 23.5093 27.1316V30.0566C23.5093 30.17 23.6499 30.2153 23.7179 30.1291V30.1246ZM14.2219 19.1275C8.82996 19.6672 4.31323 15.1505 4.85288 9.75851C5.25195 5.76782 8.48078 2.53446 12.4715 2.13539C17.868 1.59574 22.3801 6.11247 21.8405 11.5044C21.4414 15.4951 18.2126 18.7239 14.2174 19.123L14.2219 19.1275Z" fill="#878686"/>
<path d="M19.6454 39.4076C19.5547 39.3395 19.523 39.2171 19.5729 39.1128C20.0037 38.2194 20.4118 37.3125 20.8789 36.4327C21.863 34.5734 23.1146 32.8819 24.2937 31.145C25.314 29.6485 26.3661 28.1702 27.4227 26.7009C27.6994 26.3154 28.0395 25.9707 28.3796 25.6397C28.7787 25.2542 29.0054 25.2588 29.4544 25.5717C29.4906 25.5944 29.5224 25.617 29.5587 25.6442C30.0257 25.9617 30.0756 26.0887 29.9214 26.6283L29.5496 27.4854C29.273 27.9298 29.019 28.3924 28.7242 28.8232C26.9103 31.4443 25.1054 34.0746 23.2597 36.673C22.4162 37.8566 21.4095 38.9133 20.3483 39.9155L19.6454 39.4076V39.4076Z" fill="#878686"/>
<path d="M19.9901 40.2374L18.7248 41.2487L18.6704 41.2124L19.2373 39.6978L19.9901 40.2419V40.2374Z" fill="#878686"/>
</svg>
