<svg width="42" height="42" viewBox="0 0 42 42" fill="none" xmlns="http://www.w3.org/2000/svg">
<g clip-path="url(#clip0_7163_778)">
<path d="M30.8512 26.8708C29.9586 26.3612 29.0332 26.2002 28.2464 26.4186C27.6555 26.5824 27.1739 26.9562 26.8498 27.5009C26.135 28.3556 25.2488 29.3532 25.0353 29.5079C23.3755 30.6307 22.0587 30.4977 20.6286 29.0676L12.588 21.027C11.1564 19.5954 11.0248 18.2772 12.1462 16.6223C12.3031 16.4053 13.3006 15.5198 14.1546 14.8057C14.6993 14.4809 15.0731 14 15.2369 13.4085C15.4546 12.6223 15.2936 11.6976 14.7798 10.7966C14.6587 10.5894 11.7773 5.70739 9.12 4.30242C7.76963 3.58908 6.14135 3.8334 5.06259 4.91285L3.28661 6.68884C-1.89435 11.8705 -0.935306 18.3066 6.06014 25.3014L16.3542 35.5961C19.5316 38.7742 22.6104 40.7245 25.5022 41.3931C26.2695 41.5702 27.0213 41.6591 27.7591 41.6591C30.3612 41.6591 32.7777 40.5579 34.9667 38.3689L36.7427 36.5929C37.8214 35.5142 38.0671 33.8838 37.3531 32.5355C35.9474 29.8789 31.0661 26.9962 30.8512 26.8708ZM35.7528 35.6024L33.9768 37.3784C29.379 41.9762 23.7822 41.0445 17.344 34.6055L7.04999 24.3108C0.611772 17.8733 -0.321374 12.2772 4.27646 7.67799L6.05244 5.902C6.44866 5.50578 6.97159 5.29857 7.50152 5.29857C7.82843 5.29857 8.15885 5.37697 8.46476 5.53938C10.7707 6.75954 13.5442 11.4575 13.5673 11.4974C13.8816 12.0483 14.0013 12.623 13.8872 13.0347C13.8172 13.2867 13.6611 13.4785 13.4084 13.6199L13.3034 13.6927C12.7063 14.1911 11.2852 15.3966 10.9877 15.8355C10.5593 16.4683 10.2751 17.09 10.1259 17.7011C9.62822 16.7084 9.2264 15.559 9.0941 14.2842C9.05349 13.8999 8.71118 13.6262 8.32476 13.6598C7.94044 13.7004 7.66112 14.0441 7.70033 14.4291C8.20575 19.2965 11.9915 22.4648 12.1518 22.5971C12.1693 22.6118 12.1904 22.6167 12.2086 22.6293L19.6373 30.0581C19.6688 30.0896 19.701 30.1169 19.7325 30.147C19.757 30.1834 19.7731 30.2233 19.8053 30.2555C19.9376 30.3864 23.0983 33.4526 27.925 33.9538C27.9495 33.9559 27.974 33.9573 27.9978 33.9573C28.3521 33.9573 28.6559 33.6892 28.6937 33.3301C28.7336 32.945 28.4536 32.6013 28.0692 32.5607C26.5887 32.4074 25.2775 31.9734 24.1847 31.4701C24.721 31.3091 25.2663 31.0417 25.8186 30.6671C26.2576 30.3689 27.463 28.9492 27.9607 28.3521L28.0335 28.2464C28.1749 27.9951 28.3668 27.8383 28.6188 27.7676C29.0283 27.6563 29.6044 27.7725 30.1483 28.0826C31.4637 28.854 35.0997 31.2748 36.1133 33.1901C36.5397 33.9923 36.3941 34.9612 35.7528 35.6024Z" fill="#878686"/>
<path d="M19.1544 0.340912C18.7673 0.340912 18.4543 0.653828 18.4543 1.04095C18.4543 1.42807 18.7673 1.74098 19.1544 1.74098C30.9794 1.74098 40.6 11.3616 40.6 23.1866C40.6 23.5737 40.9129 23.8866 41.3 23.8866C41.6871 23.8866 42 23.5737 42 23.1866C42 10.5894 31.7515 0.340912 19.1544 0.340912Z" fill="#878686"/>
<path d="M19.1544 6.66222C28.266 6.66222 35.678 14.0749 35.678 23.1858C35.678 23.573 35.9909 23.8859 36.378 23.8859C36.7652 23.8859 37.0781 23.573 37.0781 23.1858C37.0781 13.3027 29.0375 5.26215 19.1544 5.26215C18.7673 5.26215 18.4543 5.57506 18.4543 5.96218C18.4543 6.3493 18.7673 6.66222 19.1544 6.66222Z" fill="#878686"/>
<path d="M19.1544 11.5835C25.5527 11.5835 30.7575 16.7889 30.7575 23.1866C30.7575 23.5737 31.0704 23.8866 31.4575 23.8866C31.8446 23.8866 32.1575 23.5737 32.1575 23.1866C32.1575 16.0168 26.3241 10.1834 19.1544 10.1834C18.7673 10.1834 18.4543 10.4963 18.4543 10.8834C18.4543 11.2706 18.7673 11.5835 19.1544 11.5835Z" fill="#878686"/>
</g>
<defs>
<clipPath id="clip0_7163_778">
<rect width="42" height="42" fill="white"/>
</clipPath>
</defs>
</svg>
