<svg width="43" height="43" viewBox="0 0 43 43" fill="none" xmlns="http://www.w3.org/2000/svg">
<path d="M36.7029 6.29715C32.642 2.23644 27.2428 0 21.5 0C15.7572 0 10.358 2.23644 6.29715 6.29715C2.23644 10.358 0 15.7572 0 21.5C0 27.2428 2.23644 32.642 6.29715 36.7029C10.358 40.7636 15.7572 43 21.5 43C24.4019 43 27.2178 42.4313 29.8692 41.3099L28.833 38.8602C26.5112 39.8423 24.044 40.3402 21.5 40.3402C11.1115 40.3402 2.65979 31.8885 2.65979 21.5C2.65979 11.1115 11.1115 2.65979 21.5 2.65979C31.8885 2.65979 40.3402 11.1115 40.3402 21.5C40.3402 26.0503 37.5444 28.1228 34.9467 28.1228C32.349 28.1228 29.5532 26.0504 29.5532 21.5C29.5532 17.0594 25.9406 13.4468 21.5 13.4468C17.0594 13.4468 13.4468 17.0595 13.4468 21.5C13.4468 25.9405 17.0594 29.5532 21.5 29.5532C24.1292 29.5532 26.468 28.2866 27.9387 26.3318C28.3153 27.0922 28.7893 27.7801 29.3608 28.381C30.8337 29.9297 32.8174 30.7825 34.9467 30.7825C37.076 30.7825 39.0598 29.9296 40.5327 28.381C42.1468 26.6839 43 24.3045 43 21.5C43 15.7572 40.7636 10.358 36.7029 6.29715ZM21.5 26.8934C18.5261 26.8934 16.1066 24.4739 16.1066 21.5C16.1066 18.5261 18.5261 16.1066 21.5 16.1066C24.4739 16.1066 26.8934 18.5261 26.8934 21.5C26.8934 24.4739 24.4739 26.8934 21.5 26.8934Z" fill="#878686"/>
</svg>
