<svg width="43" height="43" viewBox="0 0 43 43" fill="none" xmlns="http://www.w3.org/2000/svg">
<path d="M21.5 0C9.6444 0 0 9.6444 0 21.5C0 25.5445 1.12379 29.4707 3.2556 32.8801C2.40635 35.8554 0.872404 41.4834 0.855865 41.5421C0.776481 41.8332 0.861654 42.1441 1.07913 42.3533C1.29662 42.5626 1.61085 42.637 1.89696 42.5493L10.4192 39.928C13.7575 41.9391 17.5804 43 21.5 43C33.3556 43 43 33.3556 43 21.5C43 9.6444 33.3556 0 21.5 0ZM21.5 41.3462C17.7631 41.3462 14.123 40.3018 10.9724 38.3271C10.8393 38.2435 10.6863 38.2014 10.5333 38.2014C10.4515 38.2014 10.3696 38.2138 10.2902 38.2378L2.84875 40.5283C3.39535 38.533 4.37773 34.964 4.94748 32.9785C5.01363 32.7486 4.97642 32.5006 4.8466 32.2996C2.75779 29.0854 1.65385 25.351 1.65385 21.5C1.65385 10.5573 10.5573 1.65385 21.5 1.65385C32.4427 1.65385 41.3462 10.5573 41.3462 21.5C41.3462 32.4427 32.4427 41.3462 21.5 41.3462Z" fill="#878686"/>
<path d="M32.6538 26.3849C31.4109 25.6794 30.3525 24.9718 29.5802 24.4555C28.9904 24.0618 28.5642 23.7775 28.2517 23.6171C27.3785 23.1717 26.7166 23.4863 26.4648 23.7465C26.4331 23.7788 26.4049 23.8139 26.3806 23.8511C25.4737 25.2423 24.2893 26.5729 23.9426 26.6444C23.542 26.5804 21.6668 25.4908 19.8031 23.9041C17.9003 22.2831 16.7032 20.7308 16.5275 19.6735C17.7482 18.389 18.1878 17.5809 18.1878 16.6613C18.1878 15.7134 16.0252 11.7561 15.634 11.3562C15.2414 10.9555 14.3574 10.8929 13.0061 11.1682C12.8761 11.1951 12.7563 11.2605 12.662 11.3562C12.4984 11.5234 8.66996 15.5138 10.4892 20.3502C12.4863 25.658 17.6121 31.8277 24.1473 32.83C24.8899 32.9436 25.5861 33 26.2379 33C30.0825 33 32.3515 31.0224 32.9905 27.0994C33.0383 26.8124 32.903 26.5261 32.6538 26.3849ZM24.3472 31.4684C17.4364 30.409 13.0835 23.4092 11.7463 19.8559C10.4199 16.3316 12.866 13.1892 13.4801 12.4789C13.9797 12.3921 14.5055 12.3556 14.725 12.3907C15.1835 13.0426 16.7712 16.1092 16.8412 16.6613C16.8412 17.0227 16.7261 17.5258 15.3552 18.928C15.2286 19.0567 15.1579 19.2316 15.1579 19.4147C15.1579 23.0189 22.5939 28.0191 23.9109 28.0191C25.0562 28.0191 26.5496 26.0511 27.4 24.7687C27.4492 24.7708 27.532 24.788 27.6498 24.8485C27.8922 24.9731 28.3123 25.2533 28.8436 25.6085C29.5452 26.0772 30.477 26.6995 31.5772 27.3445C31.0776 29.8019 29.6812 32.2876 24.3472 31.4684Z" fill="#878686"/>
</svg>
