<svg width="43" height="43" viewBox="0 0 43 43" fill="none" xmlns="http://www.w3.org/2000/svg">
<path d="M30.9371 27.016L22.3812 21.033V10.75C22.3812 10.2654 21.9847 9.86887 21.5 9.86887C21.0154 9.86887 20.6189 10.2654 20.6189 10.75V21.5C20.6189 21.7908 20.7599 22.0551 20.9978 22.2226L29.9326 28.4699C30.0824 28.5756 30.2586 28.6285 30.4349 28.6285C30.708 28.6285 30.9812 28.4963 31.1574 28.2408C31.4306 27.8443 31.3336 27.298 30.9371 27.016Z" fill="#878686"/>
<path d="M36.691 6.30902C32.6201 2.23812 27.2275 0 21.5 0C15.7725 0 10.3799 2.23812 6.30902 6.30902C2.23811 10.3799 0 15.7725 0 21.5C0 27.2275 2.23811 32.6201 6.30902 36.691C10.3799 40.7619 15.7725 43 21.5 43C27.2275 43 32.6201 40.7619 36.691 36.691C40.7619 32.6201 43 27.2275 43 21.5C43 15.7725 40.7619 10.3799 36.691 6.30902ZM22.3811 41.2201V37.625C22.3811 37.1404 21.9846 36.7439 21.5 36.7439C21.0154 36.7439 20.6189 37.1404 20.6189 37.625V41.2201C10.4328 40.7707 2.2293 32.5672 1.77992 22.3811H5.375C5.85963 22.3811 6.25615 21.9846 6.25615 21.5C6.25615 21.0154 5.85963 20.6189 5.375 20.6189H1.77992C2.2293 10.4328 10.4328 2.2293 20.6189 1.77992V5.375C20.6189 5.85963 21.0154 6.25615 21.5 6.25615C21.9846 6.25615 22.3811 5.85963 22.3811 5.375V1.77992C32.5672 2.2293 40.7707 10.4328 41.2201 20.6189H37.625C37.1404 20.6189 36.7439 21.0154 36.7439 21.5C36.7439 21.9846 37.1404 22.3811 37.625 22.3811H41.2201C40.7707 32.5672 32.5672 40.7707 22.3811 41.2201Z" fill="#878686"/>
</svg>
