<svg width="30" height="41" viewBox="0 0 30 41" fill="none" xmlns="http://www.w3.org/2000/svg">
<path d="M26.1339 0H3.00612C2.20951 0.0021706 1.44616 0.319581 0.88287 0.882868C0.319583 1.44615 0.0021706 2.20951 0 3.00612V37.4346C0.0021706 38.2312 0.319583 38.9946 0.88287 39.5578C1.44616 40.1211 2.20951 40.4385 3.00612 40.4407H26.1339C26.9305 40.4385 27.6939 40.1211 28.2571 39.5578C28.8204 38.9946 29.1378 38.2312 29.14 37.4346V3.00612C29.1378 2.20951 28.8204 1.44615 28.2571 0.882868C27.6939 0.319581 26.9305 0.0021706 26.1339 0ZM27.7295 37.4922C27.7284 37.8976 27.5669 38.286 27.2802 38.5727C26.9936 38.8593 26.6051 39.0209 26.1997 39.022H2.95677C2.75465 39.0236 2.55419 38.9852 2.36693 38.9091C2.17967 38.833 2.0093 38.7207 1.86561 38.5785C1.72192 38.4364 1.60774 38.2672 1.52964 38.0808C1.45155 37.8943 1.41107 37.6943 1.41053 37.4922V2.98556C1.41162 2.58016 1.57314 2.19169 1.85979 1.90503C2.14645 1.61837 2.53493 1.45685 2.94032 1.45577H26.1874C26.3891 1.45468 26.5891 1.49342 26.7759 1.56977C26.9627 1.64611 27.1326 1.75856 27.2759 1.90067C27.4191 2.04277 27.5329 2.21175 27.6108 2.39791C27.6886 2.58408 27.7289 2.78377 27.7295 2.98556V37.4922Z" fill="#878686"/>
<path d="M23.0787 3.57373H6.06184C5.47611 3.5759 4.91506 3.80983 4.50127 4.22439C4.08748 4.63895 3.8546 5.20044 3.85352 5.78617V31.1099C3.8546 31.6957 4.08748 32.2572 4.50127 32.6717C4.91506 33.0863 5.47611 33.3202 6.06184 33.3224H23.0787C23.6644 33.3202 24.2255 33.0863 24.6393 32.6717C25.053 32.2572 25.2859 31.6957 25.287 31.1099V5.78617C25.2859 5.20044 25.053 4.63895 24.6393 4.22439C24.2255 3.80983 23.6644 3.5759 23.0787 3.57373ZM24.1109 30.9537C24.1098 31.2467 23.9929 31.5275 23.7857 31.7347C23.5785 31.9419 23.2977 32.0588 23.0047 32.0599H6.14409C5.85032 32.0599 5.56852 31.9435 5.36041 31.7361C5.1523 31.5288 5.03484 31.2474 5.03375 30.9537V5.95477C5.03375 5.66029 5.15074 5.37788 5.35896 5.16965C5.56719 4.96142 5.84961 4.84444 6.14409 4.84444H23.0047C23.2984 4.84553 23.5798 4.96299 23.7871 5.1711C23.9945 5.37921 24.1109 5.661 24.1109 5.95477V30.9537Z" fill="#878686"/>
<path d="M16.0996 36.1802C16.0996 36.4827 16.0099 36.7785 15.8418 37.0301C15.6737 37.2817 15.4348 37.4777 15.1553 37.5935C14.8757 37.7093 14.5681 37.7396 14.2714 37.6806C13.9746 37.6216 13.702 37.4758 13.4881 37.2619C13.2742 37.048 13.1285 36.7754 13.0694 36.4786C13.0104 36.1819 13.0407 35.8743 13.1565 35.5948C13.2723 35.3152 13.4684 35.0763 13.7199 34.9082C13.9715 34.7401 14.2673 34.6504 14.5698 34.6504C14.9756 34.6504 15.3647 34.8116 15.6516 35.0985C15.9384 35.3853 16.0996 35.7745 16.0996 36.1802Z" fill="#878686"/>
<path d="M20.7757 11.1445H8.36059C7.9813 11.1445 7.67383 11.452 7.67383 11.8313C7.67383 12.2106 7.9813 12.518 8.36059 12.518H20.7757C21.155 12.518 21.4625 12.2106 21.4625 11.8313C21.4625 11.452 21.155 11.1445 20.7757 11.1445Z" fill="#878686"/>
<path d="M20.7757 15.7378H8.36059C7.9813 15.7378 7.67383 16.0453 7.67383 16.4246C7.67383 16.8038 7.9813 17.1113 8.36059 17.1113H20.7757C21.155 17.1113 21.4625 16.8038 21.4625 16.4246C21.4625 16.0453 21.155 15.7378 20.7757 15.7378Z" fill="#878686"/>
<path d="M20.7757 20.3354H8.36059C7.9813 20.3354 7.67383 20.6429 7.67383 21.0222C7.67383 21.4015 7.9813 21.709 8.36059 21.709H20.7757C21.155 21.709 21.4625 21.4015 21.4625 21.0222C21.4625 20.6429 21.155 20.3354 20.7757 20.3354Z" fill="#878686"/>
<path d="M20.7757 24.9292H8.36059C7.9813 24.9292 7.67383 25.2367 7.67383 25.616C7.67383 25.9952 7.9813 26.3027 8.36059 26.3027H20.7757C21.155 26.3027 21.4625 25.9952 21.4625 25.616C21.4625 25.2367 21.155 24.9292 20.7757 24.9292Z" fill="#878686"/>
</svg>
