<svg width="38" height="44" viewBox="0 0 38 44" fill="none" xmlns="http://www.w3.org/2000/svg">
<path d="M5.43115 43.9541H34.7633C35.621 43.9518 36.4429 43.61 37.0493 43.0036C37.6558 42.3971 37.9975 41.5753 37.9999 40.7176V3.65056C37.9975 2.79291 37.6558 1.97105 37.0493 1.36459C36.4429 0.758136 35.621 0.416399 34.7633 0.414062H11.1869C10.3297 0.416404 9.50826 0.758283 8.9025 1.36486C8.29675 1.97145 7.956 2.79332 7.95483 3.65056V14.0021L9.48674 14.0286V3.62843C9.48791 3.19197 9.66181 2.77372 9.97044 2.46509C10.2791 2.15647 10.6973 1.98257 11.1338 1.9814H34.8386C35.2751 1.98257 35.6933 2.15647 36.0019 2.46509C36.3106 2.77372 36.4845 3.19197 36.4856 3.62843V40.7796C36.4845 41.216 36.3106 41.6343 36.0019 41.9429C35.6933 42.2515 35.2751 42.4255 34.8386 42.4266H6.70627L5.43115 43.9762" fill="#878686"/>
<path d="M32.7093 14.8828H20.8878C20.4795 14.8828 20.1484 15.2138 20.1484 15.6222C20.1484 16.0306 20.4795 16.3616 20.8878 16.3616H32.7093C33.1176 16.3616 33.4487 16.0306 33.4487 15.6222C33.4487 15.2138 33.1176 14.8828 32.7093 14.8828Z" fill="#878686"/>
<path d="M32.7093 19.833H20.8878C20.4795 19.833 20.1484 20.164 20.1484 20.5724C20.1484 20.9808 20.4795 21.3118 20.8878 21.3118H32.7093C33.1176 21.3118 33.4487 20.9808 33.4487 20.5724C33.4487 20.164 33.1176 19.833 32.7093 19.833Z" fill="#878686"/>
<path d="M32.7087 24.7783H13.2897C12.8813 24.7783 12.5503 25.1094 12.5503 25.5177C12.5503 25.9261 12.8813 26.2571 13.2897 26.2571H32.7087C33.1171 26.2571 33.4481 25.9261 33.4481 25.5177C33.4481 25.1094 33.1171 24.7783 32.7087 24.7783Z" fill="#878686"/>
<path d="M32.7087 29.7285H13.2897C12.8813 29.7285 12.5503 30.0596 12.5503 30.4679C12.5503 30.8763 12.8813 31.2073 13.2897 31.2073H32.7087C33.1171 31.2073 33.4481 30.8763 33.4481 30.4679C33.4481 30.0596 33.1171 29.7285 32.7087 29.7285Z" fill="#878686"/>
<path d="M17.4338 14.8828H13.852C13.1331 14.8828 12.5503 15.4656 12.5503 16.1845V20.0054C12.5503 20.7243 13.1331 21.3071 13.852 21.3071H17.4338C18.1527 21.3071 18.7355 20.7243 18.7355 20.0054V16.1845C18.7355 15.4656 18.1527 14.8828 17.4338 14.8828Z" fill="#878686"/>
<path d="M5.05941 43.9539C5.05941 43.9539 2.37634 44.0336 1.23404 41.8597C0.935495 41.2716 0.783595 40.6199 0.791294 39.9603V13.9621C0.793636 13.1048 1.13552 12.2834 1.7421 11.6777C2.34868 11.0719 3.17055 10.7311 4.0278 10.73H9.48691V12.2442V38.4948C9.48691 38.4948 9.48691 40.7086 8.65011 42.1874C8.66782 42.1874 7.88415 43.8211 5.05941 43.9539ZM4.11635 42.3335L4.27574 42.3822C4.63394 42.491 5.00969 42.5301 5.38261 42.4973C8.44202 42.2671 8.16751 38.5524 8.16751 38.5524L7.96385 12.2973L3.9791 12.2442C3.54264 12.2454 3.12439 12.4193 2.81576 12.7279C2.50713 13.0365 2.33323 13.4548 2.33206 13.8912L2.28336 39.8497C2.33005 40.3925 2.52598 40.9118 2.84948 41.3501C3.17298 41.7885 3.61144 42.1288 4.11635 42.3335Z" fill="#878686"/>
</svg>
