<svg width="44" height="28" viewBox="0 0 44 28" fill="none" xmlns="http://www.w3.org/2000/svg">
<path d="M36.4588 0H5.82056C4.64244 0 3.68701 0.955425 3.68701 2.13354V20.3441C3.68701 20.5692 3.869 20.7488 4.09169 20.7488C4.34791 20.7488 4.55623 20.5404 4.55623 20.2842V2.13354C4.55623 1.43912 5.12374 0.869222 5.82056 0.869222H36.4588C37.1532 0.869222 37.7231 1.43673 37.7231 2.13354V10.8353C37.7231 11.07 37.9147 11.2616 38.1494 11.2616H38.1589C38.3984 11.2616 38.5924 11.0676 38.5924 10.8282V2.13354C38.5924 0.955425 37.6369 0 36.4588 0Z" fill="#878686"/>
<path d="M33.0632 25.1473L1.58447 25.1545C1.43122 25.1545 1.30671 25.03 1.30671 24.8767V23.3538C1.30671 23.2005 1.43122 23.076 1.58447 23.076H16.1793C16.2918 23.076 16.3924 23.1431 16.4355 23.246L16.7013 23.883C16.7444 23.9859 16.8449 24.053 16.9575 24.053H25.427C25.5395 24.053 25.6401 23.9859 25.6832 23.883L25.949 23.246C25.9921 23.1431 26.0927 23.076 26.2052 23.076H33.0656V22.1445H0.614682C0.461431 22.1445 0.336914 22.269 0.336914 22.4223V25.6909C0.336914 25.8441 0.461431 25.9686 0.614682 25.9686H33.0632V25.1473Z" fill="#878686"/>
<path d="M21.6509 2.2698C21.6509 2.55236 21.4235 2.77984 21.1409 2.77984C20.8583 2.77984 20.6309 2.55236 20.6309 2.2698C20.6309 1.98725 20.8607 1.75977 21.1409 1.75977C21.4211 1.75977 21.6509 1.98964 21.6509 2.2698Z" fill="#878686"/>
<path d="M42.3087 10.7397H34.1026C33.4034 10.7397 32.8335 11.312 32.8335 12.0089V26.551C32.8335 27.2502 33.4058 27.8201 34.1026 27.8201H42.3087C43.0079 27.8201 43.5778 27.2478 43.5778 26.551V12.0089C43.5778 11.3096 43.0055 10.7397 42.3087 10.7397ZM42.984 26.5677C42.984 26.9221 42.6943 27.2142 42.3375 27.2142H34.0811C33.7267 27.2142 33.4345 26.9245 33.4345 26.5677V12.0017C33.4345 11.6473 33.7243 11.3551 34.0811 11.3551H42.3375C42.6919 11.3551 42.984 11.6449 42.984 12.0017V26.5677Z" fill="#878686"/>
<path d="M38.8507 26.0191C38.8507 26.3759 38.5609 26.6656 38.2041 26.6656C37.8474 26.6656 37.5576 26.3759 37.5576 26.0191C37.5576 25.6623 37.8474 25.3726 38.2041 25.3726C38.5609 25.3726 38.8507 25.6623 38.8507 26.0191Z" fill="#878686"/>
</svg>
