<svg width="42" height="33" viewBox="0 0 42 33" fill="none" xmlns="http://www.w3.org/2000/svg">
<path d="M37.5004 7.16126L18.2196 7.13709L14.2384 1.11183C14.0123 0.769305 13.7046 0.488364 13.343 0.294286C12.9813 0.100208 12.5771 -0.00091778 12.1667 6.2763e-06H3.95922C2.97992 0.00183163 2.04125 0.391666 1.34878 1.08414C0.656309 1.77661 0.266474 2.71528 0.264648 3.69458V28.6657C0.266471 29.6444 0.65583 30.5826 1.34756 31.275C2.03928 31.9673 2.97706 32.3576 3.95577 32.3603H37.5004C38.4797 32.3585 39.4184 31.9686 40.1108 31.2762C40.8033 30.5837 41.1931 29.645 41.195 28.6657V10.8524C41.1922 9.87368 40.802 8.93589 40.1096 8.24417C39.4173 7.55244 38.4791 7.16308 37.5004 7.16126ZM39.6619 28.8349C39.661 29.3383 39.4606 29.8208 39.1047 30.1768C38.7487 30.5327 38.2662 30.7331 37.7628 30.734H3.72097C3.21787 30.7322 2.73588 30.5315 2.38013 30.1758C2.02438 29.82 1.82371 29.338 1.82189 28.8349V3.54265C1.82372 3.03986 2.02449 2.55824 2.38034 2.20304C2.73619 1.84783 3.21818 1.64793 3.72097 1.64703H11.7523C12.0318 1.6469 12.307 1.71587 12.5534 1.8478C12.7998 1.97973 13.0097 2.17052 13.1646 2.4032L17.4392 8.8359L37.7628 8.80483C38.2662 8.80574 38.7487 9.00611 39.1047 9.36206C39.4606 9.71801 39.661 10.2005 39.6619 10.7039V28.8349Z" fill="#878686"/>
<path d="M15.5503 4.37494L32.4693 4.34387C32.9724 4.34569 33.4544 4.54635 33.8102 4.9021C34.1659 5.25786 34.3666 5.73984 34.3684 6.24295V8.31467H35.9326L35.9222 6.39142C35.9158 5.41332 35.5225 4.47751 34.8283 3.78847C34.1341 3.09943 33.1954 2.71318 32.2173 2.71411L14.4419 2.68994L15.5503 4.37494Z" fill="#878686"/>
<path d="M9.71859 2.96631H3.31697C3.22539 2.96631 3.13757 3.00269 3.07281 3.06744C3.00806 3.13219 2.97168 3.22002 2.97168 3.3116V9.43008C2.97158 9.48211 2.98676 9.53303 3.01532 9.57652C3.04388 9.62002 3.08458 9.65417 3.13237 9.67476C3.18015 9.69534 3.23293 9.70145 3.28416 9.69233C3.33538 9.68321 3.38281 9.65926 3.42055 9.62344L9.91195 3.45662C9.95357 3.41784 9.98255 3.36743 9.99511 3.31195C10.0077 3.25647 10.0032 3.19849 9.98235 3.14557C9.96148 3.09265 9.92516 3.04725 9.87811 3.01527C9.83106 2.9833 9.77547 2.96623 9.71859 2.96631Z" fill="#878686"/>
</svg>
