<svg width="47" height="47" viewBox="0 0 47 47" fill="none" xmlns="http://www.w3.org/2000/svg">
<path d="M46.9624 34.3339C46.87 34.0415 46.6167 33.8288 46.314 33.7858L40.1188 32.9183L37.3529 27.5173C37.0805 26.9852 36.2074 26.9852 35.9358 27.5173L33.1699 32.9183L26.9747 33.7858C26.6712 33.8288 26.4187 34.0407 26.3263 34.3339C26.2339 34.627 26.3167 34.9457 26.5405 35.1552L31.0055 39.3509L29.9524 45.2674C29.8999 45.5645 30.0193 45.8664 30.2615 46.0465C30.5045 46.2273 30.8279 46.2552 31.0972 46.1174L36.644 43.3061L42.1915 46.1166C42.3047 46.1755 42.4289 46.2034 42.5516 46.2034C42.7197 46.2034 42.887 46.1508 43.0272 46.0465C43.2694 45.8664 43.3889 45.5653 43.3363 45.2674L42.284 39.3509L46.749 35.1552C46.972 34.9457 47.0549 34.6262 46.9624 34.3339ZM40.8779 38.485C40.682 38.669 40.592 38.9399 40.639 39.2044L41.4865 43.9737L37.0032 41.7017C36.8893 41.6444 36.7666 41.6157 36.6432 41.6157C36.5197 41.6157 36.3962 41.6444 36.2831 41.7017L31.7998 43.9737L32.6474 39.2044C32.6952 38.9399 32.6043 38.669 32.4084 38.485L28.8404 35.1337L33.7993 34.439C34.0558 34.4032 34.2796 34.2447 34.3975 34.0137L36.644 29.6291L38.8888 34.0137C39.0067 34.2447 39.2305 34.4032 39.4871 34.439L44.446 35.1337L40.8779 38.485Z" fill="#0055A2"/>
<path d="M24.4591 25.7138C24.2759 25.4812 23.6004 24.589 22.9448 23.2849L22.9081 23.2116C22.9041 23.2044 22.9009 23.1965 22.897 23.1893C22.8101 23.0149 22.7249 22.83 22.6389 22.6389L22.599 22.5488C22.5544 22.4477 22.5098 22.3433 22.4652 22.2342C22.4501 22.1967 22.4349 22.1593 22.4198 22.1211C22.3776 22.0159 22.3354 21.9092 22.2899 21.7865C22.2079 21.5698 22.133 21.3436 22.0597 21.1118L22.0024 20.9238C21.9275 20.6768 21.8582 20.4243 21.7976 20.1638C21.7961 20.1582 21.7945 20.1534 21.7937 20.1479L21.7801 20.0897L21.722 19.8324L21.4495 19.6563C20.9875 19.3584 20.7119 18.8597 20.7119 18.322V15.1356C20.7119 14.6887 20.9015 14.2713 21.2456 13.9606L21.5085 13.7232V8.7627V8.4807L21.487 8.46397C21.4591 7.88962 21.4941 6.12592 22.7799 4.65857C24.0998 3.15297 26.3527 2.38982 29.4746 2.38982C32.5853 2.38982 34.8334 3.1474 36.1549 4.64263C37.706 6.39597 37.4502 8.63923 37.4478 8.65835L37.4407 13.7232L37.7036 13.9606C38.0477 14.2713 38.2373 14.6887 38.2373 15.1356V18.322C38.2373 19.0175 37.7824 19.6261 37.1045 19.8348C36.6847 19.9638 36.4489 20.4107 36.5787 20.8305C36.7078 21.2504 37.1523 21.4846 37.5745 21.3563C38.924 20.9405 39.8305 19.7209 39.8305 18.322V15.1356C39.8305 14.3684 39.5445 13.6244 39.0339 13.0445V8.80731C39.0793 8.36918 39.2538 5.76107 37.3674 3.60943C35.7312 1.74218 33.076 0.7966 29.4746 0.7966C25.8731 0.7966 23.218 1.74297 21.5818 3.60863C20.4386 4.91268 20.0547 6.38163 19.9376 7.43635C18.5714 6.72975 16.963 6.37287 15.1356 6.37287C6.85961 6.37287 6.37846 13.4269 6.37288 13.5424V17.19C5.85668 17.7532 5.57627 18.4017 5.57627 19.0461V21.7976C5.57627 22.6572 5.96103 23.4586 6.62063 24.0003C7.27703 26.4777 8.89415 28.3498 9.52347 29.007V31.1921C9.52347 31.819 9.18173 32.3941 8.59064 32.7176L3.29239 36.0418C1.26103 37.1483 0 39.2729 0 41.5854V44.6102H11.1525H12.7458H21.5085C21.949 44.6102 22.3051 44.2541 22.3051 43.8135C22.3051 43.373 21.949 43.0169 21.5085 43.0169H12.7458V41.2341C12.7458 39.186 13.8626 37.3036 15.6598 36.3238L22.7679 32.4475C23.9565 31.7983 24.6949 30.5532 24.6949 29.1997V25.9982L24.5101 25.7767C24.5077 25.7751 24.4878 25.7496 24.4591 25.7138ZM23.1017 29.1997C23.1017 29.9709 22.6811 30.6782 22.0048 31.0479L19.8969 32.1974L19.3799 32.4794L14.8974 34.9242C12.5872 36.1844 11.1525 38.6013 11.1525 41.2333V43.0169H1.59322V41.5854C1.59322 39.8568 2.53641 38.2683 4.09617 37.4168L9.39442 34.0925C10.4563 33.5134 11.1159 32.4029 11.1159 31.1921L11.1151 28.3322L10.8642 28.0956C10.8427 28.0765 8.72288 26.0595 8.10073 23.351L8.02824 23.0356L7.7558 22.8603C7.38856 22.6229 7.16949 22.2254 7.16949 21.7976V19.0461C7.16949 18.7602 7.36386 18.4184 7.70402 18.1109L7.9661 17.8735L7.96451 13.5886C7.97964 13.3591 8.39309 7.96609 15.1356 7.96609C17.0427 7.96609 18.6478 8.40662 19.9153 9.27572V13.0445C19.4046 13.6244 19.1186 14.3684 19.1186 15.1356V18.322C19.1186 18.8924 19.2867 19.4317 19.5655 19.9089C19.7607 20.2427 20.0013 20.5501 20.3112 20.7987C20.3167 20.8194 20.3231 20.8385 20.3287 20.8584C20.3749 21.0345 20.4227 21.2081 20.4737 21.3754L20.5398 21.5921C20.5525 21.6319 20.5669 21.6734 20.5796 21.7132C20.6059 21.7944 20.6314 21.8749 20.6593 21.9546C20.7071 22.0956 20.7581 22.2405 20.817 22.3983C20.8409 22.4612 20.8664 22.5162 20.8903 22.5775C20.958 22.7512 21.0265 22.9193 21.0982 23.085C21.1118 23.116 21.1245 23.1519 21.1381 23.1829L21.1858 23.2913C21.2074 23.3399 21.2297 23.3829 21.2512 23.4307C21.3261 23.594 21.4001 23.7533 21.4758 23.9071C21.4902 23.9357 21.5037 23.9684 21.518 23.9971L21.5778 24.1134C21.5929 24.1429 21.6073 24.166 21.6224 24.1946C21.7514 24.4432 21.8781 24.6758 22.004 24.8933C22.0207 24.9227 22.0374 24.9522 22.0542 24.9817C22.1904 25.2143 22.321 25.4278 22.4453 25.6198C22.4509 25.6285 22.4572 25.6381 22.4628 25.6476C22.7257 26.0531 22.9535 26.371 23.1017 26.5645V29.1997Z" fill="#0055A2"/>
</svg>
