<svg width="43" height="43" viewBox="0 0 43 43" fill="none" xmlns="http://www.w3.org/2000/svg">
<path d="M37.9833 8.6C37.9833 8.52833 37.9833 8.45667 37.9116 8.385V8.31333C37.8399 8.24167 37.8399 8.17 37.7683 8.09833L29.8849 0.215C29.8133 0.143333 29.7416 0.143333 29.6699 0.0716667H29.5983C29.5266 0.0716667 29.4549 0 29.3833 0H5.73327C5.30327 0 5.0166 0.286667 5.0166 0.716667V42.2833C5.0166 42.7133 5.30327 43 5.73327 43H9.3166H13.6166H17.1999H23.6499H37.2666C37.6966 43 37.9833 42.7133 37.9833 42.2833V8.6ZM35.5466 7.88333H30.0999V2.43667L35.5466 7.88333ZM10.0333 16.4833H12.8999V37.2667H10.0333V16.4833ZM10.3916 15.05L11.4666 12.5417L12.5416 15.05H10.3916ZM10.0333 41.5667V38.7H12.8999V41.5667H10.0333ZM17.9166 41.5667V37.2667H20.7833V35.8333H17.9166V31.5333H20.7833V30.1H17.9166V25.0833H20.7833V23.65H17.9166V19.35H20.7833V17.9167H17.9166V14.3333H22.9333V41.5667H17.9166ZM24.3666 41.5667V13.6167C24.3666 13.1867 24.0799 12.9 23.6499 12.9H17.1999C16.7699 12.9 16.4833 13.1867 16.4833 13.6167V41.5667H14.3333V37.9833V15.7667C14.3333 15.5517 14.2616 15.3367 14.1183 15.265L12.1116 10.535C12.0399 10.2483 11.7533 10.105 11.4666 10.105C11.1799 10.105 10.9649 10.2483 10.8216 10.535L8.81494 15.265C8.6716 15.4083 8.59994 15.5517 8.59994 15.7667V37.9833V41.5667H6.44994V1.43333H28.6666V8.6C28.6666 9.03 28.9533 9.31667 29.3833 9.31667H36.5499V41.5667H24.3666Z" fill="#0055A2"/>
<path d="M14.3334 3.58331H8.6001V5.01665H14.3334V3.58331Z" fill="#0055A2"/>
<path d="M33.6834 15.7667H27.2334V17.2H33.6834V15.7667Z" fill="#0055A2"/>
<path d="M33.6834 19.35H27.2334V20.7833H33.6834V19.35Z" fill="#0055A2"/>
<path d="M33.6834 22.9333H27.2334V24.3667H33.6834V22.9333Z" fill="#0055A2"/>
<path d="M33.6834 26.5167H27.2334V27.95H33.6834V26.5167Z" fill="#0055A2"/>
<path d="M33.6834 30.1H27.2334V31.5333H33.6834V30.1Z" fill="#0055A2"/>
<path d="M33.6834 33.6833H27.2334V35.1167H33.6834V33.6833Z" fill="#0055A2"/>
<path d="M33.6834 37.2667H27.2334V38.7H33.6834V37.2667Z" fill="#0055A2"/>
<path d="M20.0668 6.45001H8.6001V7.88335H20.0668V6.45001Z" fill="#0055A2"/>
</svg>
