<svg width="44" height="35" viewBox="0 0 44 35" fill="none" xmlns="http://www.w3.org/2000/svg">
<path d="M43.1235 0.149658H0.876494C0.392406 0.149658 0 0.542065 0 1.02615V28.8987C0 29.3828 0.392406 29.7752 0.876494 29.7752H16.6534V32.9305H13.6733C13.1892 32.9305 12.7968 33.3229 12.7968 33.807C12.7968 34.2911 13.1892 34.6835 13.6733 34.6835H30.3267C30.8108 34.6835 31.2032 34.2911 31.2032 33.807C31.2032 33.3229 30.8108 32.9305 30.3267 32.9305H27.3466V29.7752H43.1235C43.6076 29.7752 44 29.3828 44 28.8987V1.02615C44 0.542065 43.6076 0.149658 43.1235 0.149658ZM25.5936 32.9305H18.4064V29.7752H25.5936V32.9305ZM42.247 28.0222H1.75299V1.90265H42.247V28.0222Z" fill="#0055A2"/>
</svg>
